<svg width="10" height="15" viewBox="0 0 10 15" fill="none" xmlns="http://www.w3.org/2000/svg">
<path d="M1.66655 0C0.743226 0 0 0.520507 0 1.16701V13.8331C0 14.4796 0.743226 15 1.66655 15H8.33345C9.25678 15 10 14.4796 10 13.8331V1.16701C10 0.520507 9.25678 0 8.33345 0H1.66655ZM3.82022 0.600358H6.17978C6.27894 0.600358 6.35876 0.664208 6.35876 0.74367C6.35876 0.823131 6.27894 0.887128 6.17978 0.887128H3.82022C3.72107 0.887128 3.64124 0.823131 3.64124 0.74367C3.64124 0.664208 3.72107 0.600358 3.82022 0.600358ZM1.77369 1.39019H8.22613C8.5789 1.39019 8.86287 1.57907 8.86287 1.81382V12.5858C8.86287 12.8206 8.5789 13.0096 8.22613 13.0096H1.77369C1.42093 13.0096 1.13696 12.8206 1.13696 12.5858V1.81382C1.13696 1.57907 1.42093 1.39019 1.77369 1.39019ZM3.82022 13.6535H6.17978C6.27894 13.6535 6.35876 13.7204 6.35876 13.8035V14.1856C6.35876 14.2687 6.27894 14.3356 6.17978 14.3356H3.82022C3.72107 14.3356 3.64124 14.2687 3.64124 14.1856V13.8035C3.64124 13.7204 3.72107 13.6535 3.82022 13.6535Z" fill="white"/>
</svg>
