<svg width="301" height="226" viewBox="0 0 301 226" fill="none" xmlns="http://www.w3.org/2000/svg">
<mask id="path-1-inside-1" fill="white">
<path d="M149 1.40349C142.4 10.5035 128.6 27.6035 127.9 27.6035C127.3 27.6035 124.8 25.9035 122.2 23.8035C109.7 13.4035 98.8003 5.50349 98.1003 6.30349C97.6003 6.70349 93.2003 12.9035 88.2003 19.9035C80.3003 31.2035 79.4003 33.0035 80.1003 35.4035C80.6003 36.9035 82.9003 44.5035 85.2003 52.3035C88.7003 63.8035 89.9003 66.6035 91.3003 66.6035C92.9003 66.6035 92.7003 67.4035 89.8003 72.8035C87.9003 76.3035 84.2003 83.1035 81.6003 88.1035C78.9003 93.1035 67.4003 109.503 55.9003 124.903C44.4003 140.203 34.8003 153.303 34.5003 154.003C34.1003 155.203 39.3003 155.403 64.3003 155.503L94.6003 155.603L97.1003 166.203C99.1003 174.803 99.8003 176.503 100.9 175.403C101.8 174.503 102.4 174.403 102.9 175.203C103.3 175.803 107.9 181.803 113.1 188.403C120.7 198.003 122.7 200.103 123.6 198.903C124.4 197.803 127.1 200.203 137.5 211.603C144.5 219.403 150.4 225.603 150.6 225.403C150.7 225.203 154.8 220.603 159.7 215.103C164.6 209.503 170.1 203.303 171.9 201.203C174.5 198.203 175.5 197.603 176.1 198.703C176.6 199.403 177.2 199.803 177.4 199.603C177.7 199.203 196.7 175.103 197.8 173.703C197.9 173.503 198.7 173.803 199.5 174.503C200.7 175.503 201.1 174.803 202.1 170.403C202.7 167.503 203.5 163.003 203.8 160.303L204.4 155.603L233 155.403C248.7 155.303 262.8 155.303 264.4 155.403C265.9 155.503 267.1 155.403 267.1 155.203C267.1 155.003 257.5 142.003 245.8 126.403C227.7 102.403 223.2 95.6035 216.2 82.3035C210.5 71.4035 208.4 66.6035 209.5 66.6035C210.9 66.6035 212.1 63.2035 219.1 39.9035L221.3 32.6035L212.6 20.2035C207.8 13.3035 203.3 7.20349 202.7 6.70349C201.6 5.80349 195.4 10.2035 176.4 25.3035L172.3 28.6035L162.5 15.4035C157 8.10349 152.1 1.60349 151.5 0.803488C150.7 -0.396512 150.2 -0.296512 149 1.40349ZM149.8 13.3035L149.6 23.0035L141.6 27.7035C134.2 32.1035 133.5 32.3035 131.4 30.9035L129.2 29.4035L135.9 20.8035C139.6 16.0035 144 10.2035 145.6 7.90349C147.3 5.50349 148.9 3.60349 149.3 3.60349C149.7 3.60349 149.9 8.00349 149.8 13.3035ZM162 17.1035C170.8 28.8035 171 29.1035 169.2 31.0035C167.4 32.8035 167.1 32.7035 159.2 28.0035L151.1 23.1035V13.2035C151.1 7.10349 151.5 3.60349 152 4.10349C152.5 4.70349 157 10.5035 162 17.1035ZM100.5 9.10349C100.8 9.90349 101.4 10.5035 101.9 10.4035C102.4 10.2035 107.1 13.5035 112.2 17.6035C117.4 21.7035 124.3 27.2035 127.6 29.8035C131 32.4035 134.5 36.1035 135.6 37.8035C136.6 39.6035 139.6 44.4035 142.3 48.4035C144.9 52.5035 147.1 55.9035 147.1 56.2035C147.1 56.4035 141.3 52.2035 134.3 46.9035C122 37.5035 121 36.5035 112.1 23.8035C107 16.5035 102.6 10.8035 102.4 11.0035C101.9 11.4035 112.2 27.0035 117.8 34.2035C120 37.1035 120.1 37.9035 119.5 46.0035L118.8 54.6035L110 39.0035C105.2 30.4035 100.9 23.0035 100.4 22.5035C99.9003 22.0035 96.1003 23.5035 91.7003 25.7035C87.5003 28.0035 84.2003 30.0035 84.4003 30.3035C84.7003 30.5035 88.1003 29.1035 92.0003 27.2035C95.9003 25.2035 99.3003 23.6035 99.5003 23.6035C99.8003 23.6035 100.8 25.0035 101.6 26.6035C102.8 29.0035 102.9 29.7035 101.9 30.0035C99.7003 30.7035 84.7003 31.4035 83.4003 30.9035C82.6003 30.6035 84.8003 27.0035 89.0003 21.2035C92.7003 16.2035 96.3003 11.0035 97.0003 9.80349C98.4003 7.20349 99.6003 7.00349 100.5 9.10349ZM211.5 21.0035C215.1 25.9035 217.8 30.3035 217.5 30.8035C217 31.5035 201.3 30.9035 198.4 30.1035C197.5 29.8035 197.6 28.9035 198.9 26.6035C199.8 25.0035 201 23.6035 201.5 23.6035C202 23.6035 204.7 24.9035 207.5 26.5035C210.3 28.1035 213.7 29.7035 215.1 30.0035C216.5 30.4035 214 28.7035 209.6 26.2035C205.2 23.7035 201.3 21.6035 201 21.6035C200.7 21.6035 196.3 29.0035 191.1 38.1035C186 47.2035 181.7 54.5035 181.5 54.3035C181.4 54.2035 181.1 50.3035 181 45.7035L180.8 37.4035L191.2 22.4035L201.6 7.40349L203.3 9.80349C204.2 11.0035 207.9 16.1035 211.5 21.0035ZM188.1 24.3035C180.1 35.5035 177 39.0035 171.4 43.0035C167.7 45.7035 162.5 49.7035 159.9 51.9035C157.2 54.0035 154.4 55.9035 153.5 56.0035C152.7 56.1035 151.6 56.9035 151.1 57.6035C150 59.3035 150.1 59.4035 146.6 53.1035C145 50.3035 142 45.5035 139.9 42.3035C137.7 39.2035 136.3 36.1035 136.6 35.6035C137.3 34.5035 160.8 34.2035 163.4 35.2035C164.6 35.6035 163.6 37.7035 159 44.9035C153.6 53.3035 152.4 55.6035 153.5 55.6035C153.7 55.6035 156.9 50.8035 160.6 44.8035C167.1 34.5035 167.9 33.7035 180.8 23.6035C188.2 17.9035 194.7 12.6035 195.3 11.9035C195.9 11.2035 196.7 10.6035 197.2 10.6035C197.6 10.6035 193.6 16.8035 188.1 24.3035ZM157.8 28.8035L164.7 33.1035L149.9 33.2035H135.1L142.4 28.9035C146.3 26.6035 149.9 24.6035 150.3 24.6035C150.6 24.6035 154 26.5035 157.8 28.8035ZM92.1003 36.1035L83.6003 40.4035L82.4003 37.8035C80.0003 32.5035 79.9003 32.5035 97.1003 31.8035C100.2 31.7035 99.7003 32.2035 92.1003 36.1035ZM106.2 34.3035C106.9 35.9035 107.7 37.4035 107.9 37.7035C108 38.0035 104.9 38.6035 100.9 38.9035C96.9003 39.3035 92.0003 39.8035 90.1003 40.1035C87.2003 40.6035 88.1003 39.9035 94.6003 36.3035C99.0003 33.9035 103.1 31.8035 103.7 31.7035C104.3 31.7035 105.4 32.8035 106.2 34.3035ZM205.2 35.7035C209.7 37.9035 213.1 39.9035 212.9 40.1035C212.5 40.5035 194 38.5035 193.3 38.0035C192.8 37.7035 196 31.6035 196.6 31.6035C196.9 31.6035 200.8 33.4035 205.2 35.7035ZM214.9 32.6035H219.3L218.6 36.3035C218.2 38.4035 217.8 40.2035 217.6 40.4035C217.4 40.6035 213.5 38.6035 209 36.1035L200.6 31.4035L205.5 32.0035C208.2 32.3035 212.4 32.6035 214.9 32.6035ZM96.1003 44.9035L86.6003 50.2035L85.4003 47.7035C82.6003 41.8035 82.1003 42.0035 104.1 39.8035C104.9 39.7035 101.3 42.0035 96.1003 44.9035ZM111.1 43.5035C113.5 48.2035 113.7 48.1035 101.6 49.1035C97.2003 49.5035 92.5003 50.0035 91.1003 50.3035C89.7003 50.6035 92.9003 48.3035 98.1003 45.3035C103.3 42.3035 107.9 39.8035 108.3 39.7035C108.7 39.7035 110 41.4035 111.1 43.5035ZM133.3 61.4035L135.5 65.0035L128.6 61.2035C124.7 59.1035 121.3 57.0035 120.9 56.7035C120.5 56.3035 120.4 52.3035 120.8 47.8035L121.4 39.5035L126.2 48.7035C128.9 53.7035 132.1 59.5035 133.3 61.4035ZM143.4 55.5035C146.5 57.9035 149.1 60.1035 149.1 60.4035C149.1 60.8035 143.5 70.0035 142.3 71.6035C141.5 72.7035 138 67.1035 128.6 50.1035C127.1 47.3035 125.2 44.2035 124.5 43.1035C121.7 39.1035 123.3 39.7035 130.4 45.4035C134.3 48.6035 140.2 53.2035 143.4 55.5035ZM180.1 48.5035V57.1035L173.1 60.8035C169.2 62.8035 166.1 64.3035 166.1 64.0035C166.1 63.7035 167.8 60.4035 170 56.8035C175.3 47.6035 178.3 41.5035 177.8 41.0035C177.5 40.7035 174.1 46.4035 170.1 53.6035C166.2 60.8035 161.9 67.9035 160.7 69.3035L158.5 71.9035L155.2 66.6035C153.4 63.7035 151.8 61.6035 151.5 61.9035C151.2 62.2035 152.4 64.6035 154 67.4035C155.7 70.1035 157.1 72.6035 157.1 72.8035C157.1 73.1035 155.6 74.5035 153.7 76.0035L150.3 78.5035L146.8 75.8035L143.3 73.0035L146.3 67.7035C148 64.8035 150.8 61.1035 152.5 59.5035C158.5 54.0035 177.4 39.9035 178.7 39.9035C179.8 39.9035 180.1 41.9035 180.1 48.5035ZM208.4 41.1035C215.9 41.8035 217.1 42.1035 216.6 43.5035C216.2 44.4035 215.7 46.3035 215.4 47.8035L214.9 50.4035L205.4 45.4035C200.2 42.6035 195.7 40.6035 195.4 40.9035C195.1 41.2035 198.6 43.3035 203.1 45.6035C207.6 47.9035 211.1 49.9035 211 50.1035C210.7 50.3035 202.9 49.5035 187.3 47.6035C187.2 47.6035 188 45.9035 189.3 43.7035C191.8 39.4035 190.6 39.5035 208.4 41.1035ZM99.5003 53.0035C94.5003 54.8035 89.9003 56.6035 89.3003 57.0035C88.7003 57.3035 87.9003 56.4035 87.3003 54.9035L86.4003 52.1035L95.0003 51.0035C108.6 49.2035 109.2 49.5035 99.5003 53.0035ZM116.5 52.7035C117.5 54.4035 118.1 55.9035 117.9 56.1035C117.1 56.8035 93.3003 57.1035 93.7003 56.4035C94.0003 56.0035 94.8003 55.6035 95.4003 55.6035C96.1003 55.6035 100 54.3035 104.1 52.7035C113.7 49.0035 114.3 49.0035 116.5 52.7035ZM207.4 51.1035C213.7 51.8035 214.1 52.0035 213.5 54.0035C213.1 55.2035 212.7 56.3035 212.5 56.5035C212.3 56.7035 207.8 55.4035 202.6 53.6035C197.3 51.8035 192.8 50.6035 192.5 50.9035C192.2 51.2035 195.6 52.6035 200.1 54.1035C204.6 55.6035 208.1 56.9035 207.9 57.0035C207.7 57.1035 201.9 57.0035 194.9 56.7035L182.2 56.1035L184.2 52.9035C186.2 49.8035 186.3 49.8035 193.4 50.1035C197.4 50.2035 203.6 50.7035 207.4 51.1035ZM103.6 61.2035C97.6003 63.0035 92.1003 64.6035 91.5003 64.6035C90.5003 64.6035 89.2003 61.6035 89.1003 59.4035C89.1003 58.8035 95.7003 58.3035 109.6 57.9035C114.3 57.7035 113.9 57.9035 103.6 61.2035ZM121.9 63.4035C123.2 66.5035 124.4 69.6035 124.7 70.3035C125.1 71.1035 122.6 70.6035 117.9 69.1035C113.9 67.8035 107 66.4035 102.6 66.0035L94.6003 65.3035L104.1 62.4035C109.3 60.8035 114.5 59.1035 115.6 58.6035C119 57.1035 119.5 57.5035 121.9 63.4035ZM193.1 61.4035C198.3 63.0035 203.5 64.6035 204.6 64.8035C205.7 65.1035 203 65.6035 198.6 65.9035C192 66.5035 182.2 68.9035 176.4 71.2035C175.7 71.5035 176.6 68.5035 178.4 64.6035C180.1 60.7035 182 57.7035 182.6 57.9035C183.1 58.2035 187.9 59.7035 193.1 61.4035ZM211.9 59.1035C212 59.2035 211.6 60.6035 210.9 62.2035L209.6 65.2035L198.1 61.5035L186.6 57.7035L199.1 58.3035C206 58.6035 211.7 59.0035 211.9 59.1035ZM135.1 66.8035C135.1 67.3035 134.6 67.6035 134 67.6035C133.4 67.6035 131.6 68.5035 129.9 69.7035C128.3 70.9035 126.9 71.7035 126.7 71.5035C126.5 71.1035 124.6 66.8035 122.5 61.9035L121.1 58.7035L128.1 62.4035C131.9 64.4035 135.1 66.4035 135.1 66.8035ZM176.6 65.2035C174.2 70.8035 173.8 71.1035 170.4 71.4035C167.6 71.6035 165.6 72.6035 162.9 75.3035L159.1 79.0035V76.1035C159.1 74.4035 160.2 71.9035 161.6 70.3035C164 67.6035 164.1 67.6035 167.2 69.1035C168.9 70.0035 170.5 70.5035 170.8 70.2035C171.1 69.9035 170.2 69.1035 168.7 68.5035C167.3 67.8035 166.1 66.9035 166.1 66.5035C166.1 66.1035 168.5 64.5035 171.4 63.1035C174.2 61.6035 177 60.0035 177.5 59.5035C179.4 57.7035 179.1 59.4035 176.6 65.2035ZM103.4 67.6035L109.6 67.7035L103.1 73.6035C97.3003 78.9035 96.1003 79.5035 92.3003 79.6035C89.9003 79.6035 88.1003 79.3035 88.3003 78.8035C92.2003 70.5035 94.7003 66.6035 95.9003 67.1035C96.7003 67.4035 100 67.6035 103.4 67.6035ZM209.9 73.4035L213.2 79.6035H208.6C204.4 79.6035 203.4 79.1035 197.5 73.8035L191.1 68.1035L197.8 67.5035C201.6 67.2035 205 67.0035 205.6 67.1035C206.1 67.2035 208.1 70.0035 209.9 73.4035ZM139 70.2035C140.2 71.7035 141.1 74.3035 141.1 76.0035L141 79.1035L138 75.3035C135.8 72.7035 134.1 71.6035 132.3 71.6035H129.6L132.6 69.6035C136.4 67.1035 136.5 67.1035 139 70.2035ZM117.8 70.3035C120.7 71.2035 123.1 72.2035 123.1 72.5035C123.1 73.6035 108.6 78.4035 103.6 79.0035L98.6003 79.6035L104.6 74.2035C107.9 71.1035 111 68.7035 111.5 68.6035C112 68.6035 114.8 69.4035 117.8 70.3035ZM194.9 73.3035C198.1 75.9035 201.1 78.4035 201.6 78.9035C204.3 81.2035 189.1 77.8035 181.1 74.3035L176.6 72.3035L182.1 70.6035C185.1 69.6035 188 68.8035 188.4 68.7035C188.9 68.6035 191.8 70.7035 194.9 73.3035ZM137.6 76.6035C142.3 81.4035 141.5 83.3035 136.7 78.7035L133.3 75.4035L126.4 76.6035C116.7 78.4035 114.2 77.6035 121.1 74.9035C129.8 71.6035 133 71.9035 137.6 76.6035ZM179.2 75.1035C185.3 77.4035 185.4 77.5035 182 77.6035C180 77.6035 175.9 77.1035 172.7 76.5035L167 75.3035L163.6 78.6035C158.9 83.1035 159.1 81.2035 163.8 76.4035C168.2 71.8035 170.4 71.7035 179.2 75.1035ZM150.6 79.6035C151 79.6035 152.7 78.4035 154.5 76.9035L157.6 74.3035L158.2 85.2035C158.6 91.2035 158.9 100.403 159 105.603L159.1 115.103L151.3 115.003C147.1 114.903 143 114.803 142.2 114.703C141.1 114.603 141 111.903 141.5 99.8035C141.9 91.7035 142.4 82.7035 142.7 79.9035L143.2 74.6035L146.5 77.1035C148.3 78.5035 150.1 79.6035 150.6 79.6035ZM136.1 79.6035L139.5 82.6035L137.4 84.7035L135.3 86.8035L133.5 83.6035C131.7 80.6035 131.4 80.4035 127.2 81.0035C124.8 81.3035 121.9 81.6035 120.9 81.6035C119.7 81.6035 119.1 82.1035 119.4 82.8035C119.7 83.5035 120.6 85.8035 121.5 87.8035C122.4 89.9035 122.9 91.6035 122.7 91.6035C122.4 91.6035 120.8 89.6035 119 87.1035C116.5 83.6035 115 82.5035 112.2 82.1035C102.2 80.5035 102.6 79.9035 114.5 79.1035C121.1 78.7035 127.6 78.0035 129 77.6035C130.4 77.1035 131.9 76.7035 132.2 76.7035C132.5 76.6035 134.3 78.0035 136.1 79.6035ZM185.6 79.0035C198.4 80.2035 198.7 80.5035 188.9 82.1035C186.1 82.5035 184.4 83.7035 182 86.9035C177 93.4035 176.8 93.4035 179 88.3035C180.2 85.6035 181.1 83.1035 181.1 82.7035C181.1 82.2035 178.5 81.6035 175.4 81.2035C169.9 80.5035 169.5 80.7035 167.4 83.3035C165.3 85.9035 165.1 86.0035 163.4 84.4035C161.8 82.7035 161.9 82.5035 164.6 79.6035C167 77.1035 168.1 76.6035 170.1 77.2035C171.5 77.6035 178.5 78.4035 185.6 79.0035ZM98.3003 82.6035C99.0003 83.7035 97.7003 86.8035 93.7003 93.9035C90.6003 99.3035 88.1003 104.003 88.1003 104.203C88.1003 104.403 90.0003 104.303 92.2003 104.003C96.1003 103.303 96.3003 103.403 95.2003 105.403C93.5003 108.603 93.8003 108.803 98.2003 108.103L102.4 107.403L100.7 109.703C98.3003 113.203 98.7003 113.903 102.7 113.303C105.6 112.803 106.2 113.003 105.7 114.103C103.6 119.203 103.5 118.903 108 118.303L112.2 117.803L110.6 120.303L108.9 122.803L113 122.403C115.3 122.203 117.1 122.103 117.1 122.203C117.1 122.303 115.4 126.003 113.3 130.603L109.5 138.803L93.8003 118.203L78.1003 97.6035L80.1003 94.1035C81.2003 92.2035 83.2003 88.3035 84.6003 85.5035L87.2003 80.5035L92.3003 80.8035C95.5003 81.0035 97.7003 81.7035 98.3003 82.6035ZM120.2 90.8035C125.4 97.6035 125.8 97.9035 138 102.203C139.1 102.503 138.6 103.503 136.3 105.903C133.9 108.403 133 110.603 132.1 115.903C131.4 119.603 131.2 123.303 131.5 124.203C131.9 125.303 131.6 125.603 130.3 125.403C128.9 125.103 128.5 123.603 128.1 116.003L127.6 106.903L117.8 97.6035C112.5 92.5035 106 86.8035 103.6 84.9035C101.1 83.0035 99.1003 81.4035 99.1003 81.2035C99.1003 81.1035 102.7 81.7035 107.1 82.5035L115 84.1035L120.2 90.8035ZM203.1 81.6035C203.9 81.0035 206.6 80.6035 209.1 80.6035H213.6L218 89.0035L222.4 97.3035L207.1 117.503C198.7 128.503 191.5 137.603 191.1 137.603C190.7 137.603 190.1 136.803 189.8 135.803C189.5 134.903 188 131.403 186.3 128.103L183.4 122.103L187.4 122.503C191.1 122.803 191.2 122.703 190.2 120.803C188.7 117.903 188.6 118.003 193.3 118.403L197.5 118.803L195.8 116.303C194.9 114.803 194.1 113.503 194.1 113.203C194.1 113.003 195.9 113.003 198.1 113.303C202.3 113.903 203.3 112.803 200.6 110.603C198 108.403 199 107.603 203.3 108.303L207.5 108.903L205.7 106.103L203.9 103.303L208 103.903C210.2 104.203 212.1 104.003 212.1 103.603C212.1 102.903 201.6 84.0035 200.5 82.7035C199.9 82.1035 191.1 89.5035 181.9 98.5035L173.1 107.003V115.203C173.1 119.803 172.7 123.803 172.1 124.103C171.6 124.403 171.1 125.203 171.1 125.803C171.1 126.503 171.7 126.403 172.6 125.603C173.7 124.703 174.1 122.203 174.1 116.203C174.1 108.803 174.3 107.703 176.5 105.703L178.9 103.403L184 112.203C186.8 117.003 189 121.003 188.8 121.203C188.6 121.403 187 121.303 185.4 121.003C183 120.503 181.9 119.503 180.5 116.403L178.7 112.303L177.9 115.103C177.5 116.603 176.9 120.303 176.5 123.403C175.9 128.603 175.2 129.703 169.3 136.303L162.8 143.603H157.5C151.7 143.603 149.5 142.103 153.9 141.103C159.6 139.903 162.9 137.003 163.6 132.603C164.1 129.503 163.9 128.003 162.7 126.703C160 123.703 160.9 123.603 165.7 126.303C168.2 127.703 170.4 128.703 170.6 128.503C170.8 128.203 170.1 123.803 169.1 118.603C168 113.403 167.2 108.803 167.1 108.403C167.1 108.003 165.6 106.703 163.9 105.503L160.6 103.303L163.3 106.203C165.2 108.203 166.3 111.003 167.1 115.603C167.7 119.203 168.5 123.003 168.8 124.103C169.1 125.203 167.6 123.803 165.3 121.003C161.8 116.503 161.3 115.203 161 109.603C160.6 102.503 160.3 102.903 169.6 99.6035C174.9 97.7035 176.2 96.6035 180.6 90.8035L185.6 84.2035L193.1 82.6035C197.2 81.8035 200.8 81.4035 201.1 81.8035C201.4 82.2035 202.3 82.1035 203.1 81.6035ZM132.1 83.6035C132.7 84.7035 133 85.6035 132.7 85.6035C131.4 85.6035 127.1 83.2035 127.1 82.4035C127.1 80.7035 131.1 81.7035 132.1 83.6035ZM173.5 82.5035C173.8 83.0035 173.3 83.6035 172.3 83.9035C171.4 84.1035 169.7 84.7035 168.6 85.2035C166.6 85.9035 166.6 85.9035 168.5 83.8035C170.5 81.5035 172.6 81.0035 173.5 82.5035ZM129.4 85.6035L135.6 88.6035L138.4 85.3035L141.3 82.1035L140.7 90.3035C139.8 101.803 139.8 101.803 134.8 99.5035C132.5 98.5035 129.8 97.6035 128.9 97.6035C126.4 97.6035 126.8 96.5035 130 93.9035L132.9 91.6035L135.6 95.6035C138.7 100.103 140.4 100.303 137.5 95.9035C136.5 94.4035 135.2 92.1035 134.5 90.8035L133.3 88.5035L129.8 92.3035C127.8 94.3035 126.1 95.8035 125.9 95.6035C125.7 95.3035 124.6 92.7035 123.4 89.9035L121.3 84.6035L124.5 87.1035C128 89.7035 130.6 90.3035 131.6 88.6035C131.9 88.0035 131.2 87.6035 129.9 87.6035C128.6 87.6035 126.3 86.5035 124.6 85.1035C120.6 81.9035 121.8 82.0035 129.4 85.6035ZM165.4 92.5035C164.5 93.9035 163.1 96.1035 162.3 97.4035C161.5 98.6035 161.1 99.9035 161.3 100.203C161.6 100.503 163.2 98.6035 164.7 96.1035C166.3 93.6035 167.9 91.6035 168.2 91.6035C169 91.6035 173.5 96.5035 173 96.9035C172.8 97.1035 170 98.2035 166.8 99.3035C162.7 100.803 160.9 101.103 160.6 100.303C160.4 99.6035 160.1 95.4035 159.9 90.9035L159.6 82.7035L163.3 86.3035C167 89.9035 167 90.0035 165.4 92.5035ZM178.5 84.1035C178.9 85.2035 176 93.8035 174.6 95.4035C174.4 95.6035 172.6 94.1035 170.5 92.1035C166.4 88.1035 166.6 87.4035 172.8 84.5035C177.6 82.3035 177.8 82.3035 178.5 84.1035ZM103.2 86.2035C104.9 87.7035 104.8 88.1035 101.3 94.4035C97.2003 102.003 96.6003 102.603 92.9003 102.603H90.2003L95.4003 93.6035C98.2003 88.6035 100.7 84.6035 101 84.6035C101.2 84.6035 102.2 85.3035 103.2 86.2035ZM206.4 95.6035C210.2 102.603 210.2 102.603 207.8 102.603C204.6 102.603 202.9 101.003 199.1 94.3035C197.3 91.1035 195.7 88.7035 195.4 89.0035C195.1 89.3035 196.9 93.1035 199.5 97.5035C202 101.903 204.1 105.803 204.1 106.103C204.1 106.403 202.8 106.603 201.2 106.603C198.6 106.603 197.8 105.703 194.2 99.5035L190.1 92.5035L193.3 89.8035C199.5 84.5035 199.5 84.5035 201.1 86.7035C201.9 87.7035 204.3 91.8035 206.4 95.6035ZM108.6 95.8035C103.2 105.203 102.2 106.403 99.2003 106.803C97.5003 107.103 96.1003 107.003 96.1003 106.803C96.1003 106.503 98.4003 102.303 101.2 97.4035L106.4 88.4035L108.4 90.5035C110.5 92.6035 110.5 92.6035 108.6 95.8035ZM115.1 97.6035C115.1 98.1035 113.4 101.303 111.4 104.903C108.1 110.603 107.2 111.503 104.4 111.803C102.6 112.003 101.1 112.103 101.1 111.903C101.1 111.703 103.4 107.503 106.2 102.603C111.2 93.9035 111.4 93.6035 113.2 95.2035C114.3 96.1035 115.1 97.2035 115.1 97.6035ZM194.8 102.903C197.6 108.003 199.8 112.203 199.8 112.303C199.7 112.403 198.1 112.103 196.2 111.803C193.3 111.203 192.3 110.003 188.9 104.203C185.3 97.7035 185.1 97.2035 186.7 95.5035C187.7 94.4035 188.7 93.6035 189 93.6035C189.3 93.7035 191.9 97.8035 194.8 102.903ZM117.9 107.103C116.3 109.803 114.5 113.103 113.9 114.303C113 116.103 107.5 118.103 106.3 117.103C106.1 117.003 108.3 112.803 111.2 107.803C116.3 98.7035 116.3 98.7035 118.6 100.403L120.9 102.103L117.9 107.103ZM189.9 108.603C192.7 113.303 194.8 117.203 194.6 117.403C194.5 117.603 192.9 117.303 191.1 116.903C188.4 116.203 187.1 114.703 183.9 109.203C180.2 102.703 180.1 102.203 181.7 100.403C183.8 98.1035 183.8 98.1035 189.9 108.603ZM86.1003 110.503L94.0003 120.903L89.3003 123.403C86.7003 124.703 78.1003 129.503 70.1003 133.903C62.1003 138.303 54.0003 142.803 52.1003 143.903C50.2003 144.903 46.2003 147.103 43.4003 148.803C40.5003 150.403 38.1003 151.503 38.1003 151.103C38.1003 150.803 40.0003 148.103 42.4003 145.203C44.7003 142.303 53.4003 130.903 61.6003 119.803C69.9003 108.803 77.0003 99.8035 77.4003 99.9035C77.8003 100.003 81.7003 104.803 86.1003 110.503ZM232.2 110.803C236.8 117.003 245.6 128.703 251.8 136.803C258 145.003 262.8 151.603 262.6 151.603C262.3 151.603 211.9 123.103 208.3 120.903C207.4 120.303 209.1 117.403 214.8 109.803C219.1 104.203 222.9 99.6035 223.2 99.6035C223.6 99.6035 227.7 104.703 232.2 110.803ZM124.3 105.303C125.8 106.603 126.1 108.403 126.1 115.103C126.1 121.903 126.5 123.803 128.2 126.003L130.2 128.603L135.3 126.003L140.4 123.403L138.3 126.303C136.6 128.703 136.4 129.903 137 132.803C138.2 137.903 138.6 138.303 144.1 140.103C146.9 141.003 149.1 142.203 149.1 142.703C149.1 143.203 146.6 143.603 143.5 143.603C138 143.603 138 143.603 132.3 137.503C125.1 129.703 125.1 129.803 124 121.803C122.5 112.003 122.2 111.603 120.1 116.403C119.1 118.703 117.5 120.603 116.7 120.603C115.9 120.603 114.6 120.903 113.7 121.203C112.8 121.503 112.1 121.403 112.1 120.803C112.1 119.703 121.4 103.603 122 103.603C122.2 103.603 123.3 104.303 124.3 105.303ZM137.3 118.403C132.9 124.003 132.5 125.603 136.6 121.103C140.1 117.203 140.3 117.203 147.9 116.903C153.9 116.603 155.2 116.803 153.8 117.703C152.8 118.303 150.3 118.503 148.3 118.203C145 117.703 144.8 117.803 146.9 118.803C148.7 119.703 150.2 119.703 153.4 118.703C160 116.803 160.1 116.803 163.9 121.503L167.6 126.003L162.7 123.303C158.6 121.003 156.7 120.603 150 120.603C143.2 120.603 141.5 121.003 138 123.203C135.4 124.803 133.5 125.403 132.9 124.803C131.3 123.203 134.2 110.603 137.1 107.203L139.6 104.203L139.9 109.403C140.2 113.903 139.8 115.203 137.3 118.403ZM120 125.703L118.9 133.103L123.4 142.603L127.9 152.103L138.6 157.103L149.2 162.103L145.9 164.803C144.1 166.303 142.2 167.603 141.8 167.603C141.4 167.603 136.4 164.503 130.8 160.703C122.9 155.403 119.4 152.203 115.4 146.903L110.2 139.903L114.5 131.003C116.9 126.103 119.1 121.103 119.6 119.803C120.9 115.503 121.1 118.203 120 125.703ZM181.1 119.603C181.1 120.103 183.2 124.803 185.7 130.103L190.3 139.603L185 146.603C180.7 152.203 177.4 155.103 168.9 160.703L158.2 167.803L155.2 165.503C153.6 164.203 152.2 162.903 152.2 162.603C152.1 162.303 156.8 159.703 162.5 156.903L172.9 151.703L177.4 142.303L181.8 132.903L180.5 125.503L179.2 118.103L179.7 125.803C180.2 133.203 180 133.703 175.9 142.103L171.6 150.803L160.9 156.103L150.2 161.403L139.4 155.803L128.5 150.303L124.6 141.703C121.2 134.403 120.6 132.403 120.9 127.603C121.3 121.103 123.1 118.303 123.1 124.103C123.2 126.303 123.7 129.103 124.4 130.303C126 133.103 138.1 145.603 139.2 145.603C139.7 145.603 140.1 147.303 140.1 149.303V152.903L142.6 150.603L145.2 148.203L145.8 150.403C146.5 153.103 147 153.103 148.6 150.903C149.9 149.203 150 149.203 151.9 150.903C153.9 152.703 153.9 152.703 154.6 150.703C155.4 148.103 156.7 148.003 158.1 150.603C159.6 153.403 161.1 153.103 161.1 149.803C161.1 147.803 163.1 145.003 169 138.703C176.4 130.803 177 129.903 177.6 124.703C178 121.603 178.5 118.803 178.8 118.303C179.3 117.403 181.1 118.403 181.1 119.603ZM160 125.403C162.2 127.803 162.2 128.003 160.5 128.703C159.4 129.103 157.2 129.503 155.4 129.503C153.5 129.603 151.8 130.303 151.1 131.303C150.1 133.003 150.1 133.003 149.1 131.303C148.5 130.403 146.8 129.603 145.3 129.603C143.8 129.603 141.6 129.303 140.4 129.003L138.1 128.403L140.2 125.703C142.8 122.403 145.3 121.603 152.1 122.303C156.4 122.703 158.1 123.403 160 125.403ZM209.9 123.403C211.4 124.403 218.9 128.803 226.6 133.103C234.3 137.403 244.7 143.203 249.6 146.103C254.6 148.903 259.5 151.603 260.6 152.203C261.9 152.803 253 153.203 234.2 153.403C218.6 153.503 205.6 153.503 205.4 153.303C204.6 152.403 206.4 146.803 207.5 147.203C208.3 147.503 208.4 144.803 207.9 136.603C207.5 130.503 206.9 124.703 206.6 123.603C205.8 121.103 206.5 121.103 209.9 123.403ZM93.6003 125.303C93.3003 126.903 92.4003 131.703 91.6003 136.103C89.7003 146.103 89.7003 147.603 91.6003 147.603C92.4003 147.603 93.1003 148.203 93.1003 149.003C93.1003 149.803 93.4003 151.103 93.7003 152.003C94.3003 153.403 91.4003 153.603 66.0003 153.603H37.6003L64.1003 139.003C78.7003 131.003 91.0003 124.003 91.6003 123.503C93.3003 121.903 94.1003 122.603 93.6003 125.303ZM107.9 140.003C107.3 140.503 93.0003 145.603 92.2003 145.603C91.8003 145.603 92.4003 140.503 93.4003 134.303L95.4003 122.903L101.8 131.403C105.4 136.003 108.1 139.903 107.9 140.003ZM206.2 134.603C206.7 140.303 207 145.103 206.8 145.303C206.5 145.503 203.8 144.503 200.6 143.103C197.4 141.703 194.2 140.603 193.5 140.603C192.7 140.603 192.1 140.403 192.1 140.103C192.1 139.203 204.4 123.603 204.8 124.003C205.1 124.203 205.7 129.003 206.2 134.603ZM148.2 132.103C150.1 133.303 149 134.303 144.4 135.303C141.7 135.903 139.5 136.303 139.4 136.203C139.2 136.103 138.8 134.603 138.5 132.903L137.9 129.803L142.6 130.703C145.1 131.203 147.7 131.803 148.2 132.103ZM162.1 131.803C162.1 136.003 161 136.503 155.9 135.203C150.2 133.803 150.7 132.003 157.2 130.703C159.6 130.203 161.7 129.803 161.9 129.703C162 129.603 162.1 130.603 162.1 131.803ZM155.6 136.503L159.6 137.303L154.9 139.403C150.4 141.403 150 141.403 146.2 139.803C143.9 138.903 142.1 137.803 142.1 137.403C142.1 135.903 149.7 135.403 155.6 136.503ZM105.1 147.603C103.5 150.903 102.1 154.003 102.1 154.603C102.1 155.203 105.4 155.603 110.3 155.603H118.6L109.6 164.603L100.6 173.603L97.3003 160.503C95.5003 153.303 94.2003 147.203 94.3003 147.103C94.8003 146.603 106.5 141.803 107.4 141.703C107.8 141.603 106.8 144.303 105.1 147.603ZM116 150.203L119 154.303L111.8 153.803C107.8 153.603 104.5 153.203 104.3 153.103C104.1 153.003 105.3 150.303 106.8 147.203L109.5 141.503L111.3 143.803C112.3 145.103 114.4 148.003 116 150.203ZM194.4 147.803C195.9 151.103 197 154.003 196.9 154.103C196.7 154.203 193.3 154.003 189.3 153.703L181.9 153.103L186.3 147.403C188.6 144.203 190.8 141.703 191.1 141.703C191.4 141.703 192.8 144.403 194.4 147.803ZM204.2 146.203C204.8 146.503 200.7 171.303 199.9 172.103C199.7 172.303 195.6 168.603 190.7 163.703L182 155.003L190.5 155.403C195.3 155.603 199.1 155.603 199.1 155.403C199.1 155.203 197.8 152.203 196.1 148.803C194.5 145.403 193.1 142.403 193.1 142.203C193.1 141.803 202.8 145.303 204.2 146.203ZM155.9 144.703L159.6 144.803L155.1 146.203C151.7 147.303 149.7 147.403 147 146.603C142.7 145.403 141.1 145.303 142.9 146.503C143.9 147.103 143.9 147.603 142.6 148.603C141.1 149.803 140.9 149.703 141.3 147.603C141.5 145.503 142.3 145.003 145.6 144.503C147.8 144.203 150.2 144.103 150.9 144.203C151.7 144.403 153.9 144.603 155.9 144.703ZM160.1 148.103C160.1 148.903 159.7 149.603 159.2 149.603C158.7 149.603 157.8 148.903 157.1 148.103C156.1 146.803 156.2 146.603 158 146.603C159.2 146.603 160.1 147.203 160.1 148.103ZM148.2 148.903C148.1 150.103 146.7 149.803 146.3 148.503C146 147.903 146.4 147.503 147.1 147.703C147.7 148.003 148.2 148.503 148.2 148.903ZM154.1 149.203C154.1 150.003 153.7 150.403 153.1 150.103C152.6 149.803 152.1 149.103 152.1 148.503C152.1 148.003 152.6 147.603 153.1 147.603C153.7 147.603 154.1 148.303 154.1 149.203ZM188.9 163.903L197.2 172.203L187.5 184.403C182.1 191.103 177.5 196.603 177.2 196.603C176.5 196.603 160.1 170.303 160.5 169.903C160.6 169.703 164.9 170.503 170.1 171.603C175.2 172.803 179.5 173.503 179.7 173.303C180.3 172.703 180.4 157.503 179.7 156.903C179.4 156.603 179.1 159.803 179.1 164.103V171.803L176.1 171.203C174.4 170.903 170.2 170.103 166.7 169.503L160.2 168.303L169.4 162.003C174.5 158.603 179.1 155.803 179.6 155.703C180.2 155.603 184.4 159.303 188.9 163.903ZM121.4 173.203C121.6 173.503 126 172.803 131 171.703C136 170.603 140.7 169.903 141.4 170.203C142 170.403 144.2 173.803 146 177.603C147.9 181.503 149.9 184.603 150.3 184.603C150.8 184.603 152.8 181.203 154.7 177.103L158.3 169.703L166.2 182.703C170.5 189.903 174.1 195.903 174.1 196.203C174.1 196.503 168.7 202.703 162.2 210.103L150.2 223.403L138 209.903L125.8 196.403L127.6 193.303C128.6 191.503 132 186.003 135.3 181.003C138.5 176.003 141.1 171.603 141.1 171.203C141.1 169.303 138.6 172.703 131 184.703C124.3 195.403 122.6 197.503 121.6 196.403C120.9 195.703 116.4 190.203 111.7 184.203L103 173.203L111.3 164.903L119.6 156.503L120.3 164.703C120.7 169.203 121.2 173.003 121.4 173.203ZM131.4 163.003C135.6 165.703 138.9 168.103 138.7 168.403C138.1 169.003 123 171.803 122.6 171.403C122.5 171.203 122 167.803 121.7 163.803C121.1 157.603 121.2 156.603 122.3 157.303C123.1 157.703 127.2 160.303 131.4 163.003ZM154.4 166.403L157 169.103L153.3 171.203L149.6 173.403L146.3 171.103L143 168.803L146.3 166.203C150.4 163.003 151.1 163.003 154.4 166.403ZM147.6 173.203C149.9 174.703 150.3 174.703 152.6 173.203C153.9 172.303 155.3 171.603 155.6 171.603C155.8 171.603 154.9 174.103 153.4 177.103C151.9 180.103 150.4 182.303 150.1 181.803C148.6 180.103 144.1 171.603 144.6 171.603C144.9 171.603 146.3 172.303 147.6 173.203Z"/>
</mask>
<path d="M149 1.40349C142.4 10.5035 128.6 27.6035 127.9 27.6035C127.3 27.6035 124.8 25.9035 122.2 23.8035C109.7 13.4035 98.8003 5.50349 98.1003 6.30349C97.6003 6.70349 93.2003 12.9035 88.2003 19.9035C80.3003 31.2035 79.4003 33.0035 80.1003 35.4035C80.6003 36.9035 82.9003 44.5035 85.2003 52.3035C88.7003 63.8035 89.9003 66.6035 91.3003 66.6035C92.9003 66.6035 92.7003 67.4035 89.8003 72.8035C87.9003 76.3035 84.2003 83.1035 81.6003 88.1035C78.9003 93.1035 67.4003 109.503 55.9003 124.903C44.4003 140.203 34.8003 153.303 34.5003 154.003C34.1003 155.203 39.3003 155.403 64.3003 155.503L94.6003 155.603L97.1003 166.203C99.1003 174.803 99.8003 176.503 100.9 175.403C101.8 174.503 102.4 174.403 102.9 175.203C103.3 175.803 107.9 181.803 113.1 188.403C120.7 198.003 122.7 200.103 123.6 198.903C124.4 197.803 127.1 200.203 137.5 211.603C144.5 219.403 150.4 225.603 150.6 225.403C150.7 225.203 154.8 220.603 159.7 215.103C164.6 209.503 170.1 203.303 171.9 201.203C174.5 198.203 175.5 197.603 176.1 198.703C176.6 199.403 177.2 199.803 177.4 199.603C177.7 199.203 196.7 175.103 197.8 173.703C197.9 173.503 198.7 173.803 199.5 174.503C200.7 175.503 201.1 174.803 202.1 170.403C202.7 167.503 203.5 163.003 203.8 160.303L204.4 155.603L233 155.403C248.7 155.303 262.8 155.303 264.4 155.403C265.9 155.503 267.1 155.403 267.1 155.203C267.1 155.003 257.5 142.003 245.8 126.403C227.7 102.403 223.2 95.6035 216.2 82.3035C210.5 71.4035 208.4 66.6035 209.5 66.6035C210.9 66.6035 212.1 63.2035 219.1 39.9035L221.3 32.6035L212.6 20.2035C207.8 13.3035 203.3 7.20349 202.7 6.70349C201.6 5.80349 195.4 10.2035 176.4 25.3035L172.3 28.6035L162.5 15.4035C157 8.10349 152.1 1.60349 151.5 0.803488C150.7 -0.396512 150.2 -0.296512 149 1.40349ZM149.8 13.3035L149.6 23.0035L141.6 27.7035C134.2 32.1035 133.5 32.3035 131.4 30.9035L129.2 29.4035L135.9 20.8035C139.6 16.0035 144 10.2035 145.6 7.90349C147.3 5.50349 148.9 3.60349 149.3 3.60349C149.7 3.60349 149.9 8.00349 149.8 13.3035ZM162 17.1035C170.8 28.8035 171 29.1035 169.2 31.0035C167.4 32.8035 167.1 32.7035 159.2 28.0035L151.1 23.1035V13.2035C151.1 7.10349 151.5 3.60349 152 4.10349C152.5 4.70349 157 10.5035 162 17.1035ZM100.5 9.10349C100.8 9.90349 101.4 10.5035 101.9 10.4035C102.4 10.2035 107.1 13.5035 112.2 17.6035C117.4 21.7035 124.3 27.2035 127.6 29.8035C131 32.4035 134.5 36.1035 135.6 37.8035C136.6 39.6035 139.6 44.4035 142.3 48.4035C144.9 52.5035 147.1 55.9035 147.1 56.2035C147.1 56.4035 141.3 52.2035 134.3 46.9035C122 37.5035 121 36.5035 112.1 23.8035C107 16.5035 102.6 10.8035 102.4 11.0035C101.9 11.4035 112.2 27.0035 117.8 34.2035C120 37.1035 120.1 37.9035 119.5 46.0035L118.8 54.6035L110 39.0035C105.2 30.4035 100.9 23.0035 100.4 22.5035C99.9003 22.0035 96.1003 23.5035 91.7003 25.7035C87.5003 28.0035 84.2003 30.0035 84.4003 30.3035C84.7003 30.5035 88.1003 29.1035 92.0003 27.2035C95.9003 25.2035 99.3003 23.6035 99.5003 23.6035C99.8003 23.6035 100.8 25.0035 101.6 26.6035C102.8 29.0035 102.9 29.7035 101.9 30.0035C99.7003 30.7035 84.7003 31.4035 83.4003 30.9035C82.6003 30.6035 84.8003 27.0035 89.0003 21.2035C92.7003 16.2035 96.3003 11.0035 97.0003 9.80349C98.4003 7.20349 99.6003 7.00349 100.5 9.10349ZM211.5 21.0035C215.1 25.9035 217.8 30.3035 217.5 30.8035C217 31.5035 201.3 30.9035 198.4 30.1035C197.5 29.8035 197.6 28.9035 198.9 26.6035C199.8 25.0035 201 23.6035 201.5 23.6035C202 23.6035 204.7 24.9035 207.5 26.5035C210.3 28.1035 213.7 29.7035 215.1 30.0035C216.5 30.4035 214 28.7035 209.6 26.2035C205.2 23.7035 201.3 21.6035 201 21.6035C200.7 21.6035 196.3 29.0035 191.1 38.1035C186 47.2035 181.7 54.5035 181.5 54.3035C181.4 54.2035 181.1 50.3035 181 45.7035L180.8 37.4035L191.2 22.4035L201.6 7.40349L203.3 9.80349C204.2 11.0035 207.9 16.1035 211.5 21.0035ZM188.1 24.3035C180.1 35.5035 177 39.0035 171.4 43.0035C167.7 45.7035 162.5 49.7035 159.9 51.9035C157.2 54.0035 154.4 55.9035 153.5 56.0035C152.7 56.1035 151.6 56.9035 151.1 57.6035C150 59.3035 150.1 59.4035 146.6 53.1035C145 50.3035 142 45.5035 139.9 42.3035C137.7 39.2035 136.3 36.1035 136.6 35.6035C137.3 34.5035 160.8 34.2035 163.4 35.2035C164.6 35.6035 163.6 37.7035 159 44.9035C153.6 53.3035 152.4 55.6035 153.5 55.6035C153.7 55.6035 156.9 50.8035 160.6 44.8035C167.1 34.5035 167.9 33.7035 180.8 23.6035C188.2 17.9035 194.7 12.6035 195.3 11.9035C195.9 11.2035 196.7 10.6035 197.2 10.6035C197.6 10.6035 193.6 16.8035 188.1 24.3035ZM157.8 28.8035L164.7 33.1035L149.9 33.2035H135.1L142.4 28.9035C146.3 26.6035 149.9 24.6035 150.3 24.6035C150.6 24.6035 154 26.5035 157.8 28.8035ZM92.1003 36.1035L83.6003 40.4035L82.4003 37.8035C80.0003 32.5035 79.9003 32.5035 97.1003 31.8035C100.2 31.7035 99.7003 32.2035 92.1003 36.1035ZM106.2 34.3035C106.9 35.9035 107.7 37.4035 107.9 37.7035C108 38.0035 104.9 38.6035 100.9 38.9035C96.9003 39.3035 92.0003 39.8035 90.1003 40.1035C87.2003 40.6035 88.1003 39.9035 94.6003 36.3035C99.0003 33.9035 103.1 31.8035 103.7 31.7035C104.3 31.7035 105.4 32.8035 106.2 34.3035ZM205.2 35.7035C209.7 37.9035 213.1 39.9035 212.9 40.1035C212.5 40.5035 194 38.5035 193.3 38.0035C192.8 37.7035 196 31.6035 196.6 31.6035C196.9 31.6035 200.8 33.4035 205.2 35.7035ZM214.9 32.6035H219.3L218.6 36.3035C218.2 38.4035 217.8 40.2035 217.6 40.4035C217.4 40.6035 213.5 38.6035 209 36.1035L200.6 31.4035L205.5 32.0035C208.2 32.3035 212.4 32.6035 214.9 32.6035ZM96.1003 44.9035L86.6003 50.2035L85.4003 47.7035C82.6003 41.8035 82.1003 42.0035 104.1 39.8035C104.9 39.7035 101.3 42.0035 96.1003 44.9035ZM111.1 43.5035C113.5 48.2035 113.7 48.1035 101.6 49.1035C97.2003 49.5035 92.5003 50.0035 91.1003 50.3035C89.7003 50.6035 92.9003 48.3035 98.1003 45.3035C103.3 42.3035 107.9 39.8035 108.3 39.7035C108.7 39.7035 110 41.4035 111.1 43.5035ZM133.3 61.4035L135.5 65.0035L128.6 61.2035C124.7 59.1035 121.3 57.0035 120.9 56.7035C120.5 56.3035 120.4 52.3035 120.8 47.8035L121.4 39.5035L126.2 48.7035C128.9 53.7035 132.1 59.5035 133.3 61.4035ZM143.4 55.5035C146.5 57.9035 149.1 60.1035 149.1 60.4035C149.1 60.8035 143.5 70.0035 142.3 71.6035C141.5 72.7035 138 67.1035 128.6 50.1035C127.1 47.3035 125.2 44.2035 124.5 43.1035C121.7 39.1035 123.3 39.7035 130.4 45.4035C134.3 48.6035 140.2 53.2035 143.4 55.5035ZM180.1 48.5035V57.1035L173.1 60.8035C169.2 62.8035 166.1 64.3035 166.1 64.0035C166.1 63.7035 167.8 60.4035 170 56.8035C175.3 47.6035 178.3 41.5035 177.8 41.0035C177.5 40.7035 174.1 46.4035 170.1 53.6035C166.2 60.8035 161.9 67.9035 160.7 69.3035L158.5 71.9035L155.2 66.6035C153.4 63.7035 151.8 61.6035 151.5 61.9035C151.2 62.2035 152.4 64.6035 154 67.4035C155.7 70.1035 157.1 72.6035 157.1 72.8035C157.1 73.1035 155.6 74.5035 153.7 76.0035L150.3 78.5035L146.8 75.8035L143.3 73.0035L146.3 67.7035C148 64.8035 150.8 61.1035 152.5 59.5035C158.5 54.0035 177.4 39.9035 178.7 39.9035C179.8 39.9035 180.1 41.9035 180.1 48.5035ZM208.4 41.1035C215.9 41.8035 217.1 42.1035 216.6 43.5035C216.2 44.4035 215.7 46.3035 215.4 47.8035L214.9 50.4035L205.4 45.4035C200.2 42.6035 195.7 40.6035 195.4 40.9035C195.1 41.2035 198.6 43.3035 203.1 45.6035C207.6 47.9035 211.1 49.9035 211 50.1035C210.7 50.3035 202.9 49.5035 187.3 47.6035C187.2 47.6035 188 45.9035 189.3 43.7035C191.8 39.4035 190.6 39.5035 208.4 41.1035ZM99.5003 53.0035C94.5003 54.8035 89.9003 56.6035 89.3003 57.0035C88.7003 57.3035 87.9003 56.4035 87.3003 54.9035L86.4003 52.1035L95.0003 51.0035C108.6 49.2035 109.2 49.5035 99.5003 53.0035ZM116.5 52.7035C117.5 54.4035 118.1 55.9035 117.9 56.1035C117.1 56.8035 93.3003 57.1035 93.7003 56.4035C94.0003 56.0035 94.8003 55.6035 95.4003 55.6035C96.1003 55.6035 100 54.3035 104.1 52.7035C113.7 49.0035 114.3 49.0035 116.5 52.7035ZM207.4 51.1035C213.7 51.8035 214.1 52.0035 213.5 54.0035C213.1 55.2035 212.7 56.3035 212.5 56.5035C212.3 56.7035 207.8 55.4035 202.6 53.6035C197.3 51.8035 192.8 50.6035 192.5 50.9035C192.2 51.2035 195.6 52.6035 200.1 54.1035C204.6 55.6035 208.1 56.9035 207.9 57.0035C207.7 57.1035 201.9 57.0035 194.9 56.7035L182.2 56.1035L184.2 52.9035C186.2 49.8035 186.3 49.8035 193.4 50.1035C197.4 50.2035 203.6 50.7035 207.4 51.1035ZM103.6 61.2035C97.6003 63.0035 92.1003 64.6035 91.5003 64.6035C90.5003 64.6035 89.2003 61.6035 89.1003 59.4035C89.1003 58.8035 95.7003 58.3035 109.6 57.9035C114.3 57.7035 113.9 57.9035 103.6 61.2035ZM121.9 63.4035C123.2 66.5035 124.4 69.6035 124.7 70.3035C125.1 71.1035 122.6 70.6035 117.9 69.1035C113.9 67.8035 107 66.4035 102.6 66.0035L94.6003 65.3035L104.1 62.4035C109.3 60.8035 114.5 59.1035 115.6 58.6035C119 57.1035 119.5 57.5035 121.9 63.4035ZM193.1 61.4035C198.3 63.0035 203.5 64.6035 204.6 64.8035C205.7 65.1035 203 65.6035 198.6 65.9035C192 66.5035 182.2 68.9035 176.4 71.2035C175.7 71.5035 176.6 68.5035 178.4 64.6035C180.1 60.7035 182 57.7035 182.6 57.9035C183.1 58.2035 187.9 59.7035 193.1 61.4035ZM211.9 59.1035C212 59.2035 211.6 60.6035 210.9 62.2035L209.6 65.2035L198.1 61.5035L186.6 57.7035L199.1 58.3035C206 58.6035 211.7 59.0035 211.9 59.1035ZM135.1 66.8035C135.1 67.3035 134.6 67.6035 134 67.6035C133.4 67.6035 131.6 68.5035 129.9 69.7035C128.3 70.9035 126.9 71.7035 126.7 71.5035C126.5 71.1035 124.6 66.8035 122.5 61.9035L121.1 58.7035L128.1 62.4035C131.9 64.4035 135.1 66.4035 135.1 66.8035ZM176.6 65.2035C174.2 70.8035 173.8 71.1035 170.4 71.4035C167.6 71.6035 165.6 72.6035 162.9 75.3035L159.1 79.0035V76.1035C159.1 74.4035 160.2 71.9035 161.6 70.3035C164 67.6035 164.1 67.6035 167.2 69.1035C168.9 70.0035 170.5 70.5035 170.8 70.2035C171.1 69.9035 170.2 69.1035 168.7 68.5035C167.3 67.8035 166.1 66.9035 166.1 66.5035C166.1 66.1035 168.5 64.5035 171.4 63.1035C174.2 61.6035 177 60.0035 177.5 59.5035C179.4 57.7035 179.1 59.4035 176.6 65.2035ZM103.4 67.6035L109.6 67.7035L103.1 73.6035C97.3003 78.9035 96.1003 79.5035 92.3003 79.6035C89.9003 79.6035 88.1003 79.3035 88.3003 78.8035C92.2003 70.5035 94.7003 66.6035 95.9003 67.1035C96.7003 67.4035 100 67.6035 103.4 67.6035ZM209.9 73.4035L213.2 79.6035H208.6C204.4 79.6035 203.4 79.1035 197.5 73.8035L191.1 68.1035L197.8 67.5035C201.6 67.2035 205 67.0035 205.6 67.1035C206.1 67.2035 208.1 70.0035 209.9 73.4035ZM139 70.2035C140.2 71.7035 141.1 74.3035 141.1 76.0035L141 79.1035L138 75.3035C135.8 72.7035 134.1 71.6035 132.3 71.6035H129.6L132.6 69.6035C136.4 67.1035 136.5 67.1035 139 70.2035ZM117.8 70.3035C120.7 71.2035 123.1 72.2035 123.1 72.5035C123.1 73.6035 108.6 78.4035 103.6 79.0035L98.6003 79.6035L104.6 74.2035C107.9 71.1035 111 68.7035 111.5 68.6035C112 68.6035 114.8 69.4035 117.8 70.3035ZM194.9 73.3035C198.1 75.9035 201.1 78.4035 201.6 78.9035C204.3 81.2035 189.1 77.8035 181.1 74.3035L176.6 72.3035L182.1 70.6035C185.1 69.6035 188 68.8035 188.4 68.7035C188.9 68.6035 191.8 70.7035 194.9 73.3035ZM137.6 76.6035C142.3 81.4035 141.5 83.3035 136.7 78.7035L133.3 75.4035L126.4 76.6035C116.7 78.4035 114.2 77.6035 121.1 74.9035C129.8 71.6035 133 71.9035 137.6 76.6035ZM179.2 75.1035C185.3 77.4035 185.4 77.5035 182 77.6035C180 77.6035 175.9 77.1035 172.7 76.5035L167 75.3035L163.6 78.6035C158.9 83.1035 159.1 81.2035 163.8 76.4035C168.2 71.8035 170.4 71.7035 179.2 75.1035ZM150.6 79.6035C151 79.6035 152.7 78.4035 154.5 76.9035L157.6 74.3035L158.2 85.2035C158.6 91.2035 158.9 100.403 159 105.603L159.1 115.103L151.3 115.003C147.1 114.903 143 114.803 142.2 114.703C141.1 114.603 141 111.903 141.5 99.8035C141.9 91.7035 142.4 82.7035 142.7 79.9035L143.2 74.6035L146.5 77.1035C148.3 78.5035 150.1 79.6035 150.6 79.6035ZM136.1 79.6035L139.5 82.6035L137.4 84.7035L135.3 86.8035L133.5 83.6035C131.7 80.6035 131.4 80.4035 127.2 81.0035C124.8 81.3035 121.9 81.6035 120.9 81.6035C119.7 81.6035 119.1 82.1035 119.4 82.8035C119.7 83.5035 120.6 85.8035 121.5 87.8035C122.4 89.9035 122.9 91.6035 122.7 91.6035C122.4 91.6035 120.8 89.6035 119 87.1035C116.5 83.6035 115 82.5035 112.2 82.1035C102.2 80.5035 102.6 79.9035 114.5 79.1035C121.1 78.7035 127.6 78.0035 129 77.6035C130.4 77.1035 131.9 76.7035 132.2 76.7035C132.5 76.6035 134.3 78.0035 136.1 79.6035ZM185.6 79.0035C198.4 80.2035 198.7 80.5035 188.9 82.1035C186.1 82.5035 184.4 83.7035 182 86.9035C177 93.4035 176.8 93.4035 179 88.3035C180.2 85.6035 181.1 83.1035 181.1 82.7035C181.1 82.2035 178.5 81.6035 175.4 81.2035C169.9 80.5035 169.5 80.7035 167.4 83.3035C165.3 85.9035 165.1 86.0035 163.4 84.4035C161.8 82.7035 161.9 82.5035 164.6 79.6035C167 77.1035 168.1 76.6035 170.1 77.2035C171.5 77.6035 178.5 78.4035 185.6 79.0035ZM98.3003 82.6035C99.0003 83.7035 97.7003 86.8035 93.7003 93.9035C90.6003 99.3035 88.1003 104.003 88.1003 104.203C88.1003 104.403 90.0003 104.303 92.2003 104.003C96.1003 103.303 96.3003 103.403 95.2003 105.403C93.5003 108.603 93.8003 108.803 98.2003 108.103L102.4 107.403L100.7 109.703C98.3003 113.203 98.7003 113.903 102.7 113.303C105.6 112.803 106.2 113.003 105.7 114.103C103.6 119.203 103.5 118.903 108 118.303L112.2 117.803L110.6 120.303L108.9 122.803L113 122.403C115.3 122.203 117.1 122.103 117.1 122.203C117.1 122.303 115.4 126.003 113.3 130.603L109.5 138.803L93.8003 118.203L78.1003 97.6035L80.1003 94.1035C81.2003 92.2035 83.2003 88.3035 84.6003 85.5035L87.2003 80.5035L92.3003 80.8035C95.5003 81.0035 97.7003 81.7035 98.3003 82.6035ZM120.2 90.8035C125.4 97.6035 125.8 97.9035 138 102.203C139.1 102.503 138.6 103.503 136.3 105.903C133.9 108.403 133 110.603 132.1 115.903C131.4 119.603 131.2 123.303 131.5 124.203C131.9 125.303 131.6 125.603 130.3 125.403C128.9 125.103 128.5 123.603 128.1 116.003L127.6 106.903L117.8 97.6035C112.5 92.5035 106 86.8035 103.6 84.9035C101.1 83.0035 99.1003 81.4035 99.1003 81.2035C99.1003 81.1035 102.7 81.7035 107.1 82.5035L115 84.1035L120.2 90.8035ZM203.1 81.6035C203.9 81.0035 206.6 80.6035 209.1 80.6035H213.6L218 89.0035L222.4 97.3035L207.1 117.503C198.7 128.503 191.5 137.603 191.1 137.603C190.7 137.603 190.1 136.803 189.8 135.803C189.5 134.903 188 131.403 186.3 128.103L183.4 122.103L187.4 122.503C191.1 122.803 191.2 122.703 190.2 120.803C188.7 117.903 188.6 118.003 193.3 118.403L197.5 118.803L195.8 116.303C194.9 114.803 194.1 113.503 194.1 113.203C194.1 113.003 195.9 113.003 198.1 113.303C202.3 113.903 203.3 112.803 200.6 110.603C198 108.403 199 107.603 203.3 108.303L207.5 108.903L205.7 106.103L203.9 103.303L208 103.903C210.2 104.203 212.1 104.003 212.1 103.603C212.1 102.903 201.6 84.0035 200.5 82.7035C199.9 82.1035 191.1 89.5035 181.9 98.5035L173.1 107.003V115.203C173.1 119.803 172.7 123.803 172.1 124.103C171.6 124.403 171.1 125.203 171.1 125.803C171.1 126.503 171.7 126.403 172.6 125.603C173.7 124.703 174.1 122.203 174.1 116.203C174.1 108.803 174.3 107.703 176.5 105.703L178.9 103.403L184 112.203C186.8 117.003 189 121.003 188.8 121.203C188.6 121.403 187 121.303 185.4 121.003C183 120.503 181.9 119.503 180.5 116.403L178.7 112.303L177.9 115.103C177.5 116.603 176.9 120.303 176.5 123.403C175.9 128.603 175.2 129.703 169.3 136.303L162.8 143.603H157.5C151.7 143.603 149.5 142.103 153.9 141.103C159.6 139.903 162.9 137.003 163.6 132.603C164.1 129.503 163.9 128.003 162.7 126.703C160 123.703 160.9 123.603 165.7 126.303C168.2 127.703 170.4 128.703 170.6 128.503C170.8 128.203 170.1 123.803 169.1 118.603C168 113.403 167.2 108.803 167.1 108.403C167.1 108.003 165.6 106.703 163.9 105.503L160.6 103.303L163.3 106.203C165.2 108.203 166.3 111.003 167.1 115.603C167.7 119.203 168.5 123.003 168.8 124.103C169.1 125.203 167.6 123.803 165.3 121.003C161.8 116.503 161.3 115.203 161 109.603C160.6 102.503 160.3 102.903 169.6 99.6035C174.9 97.7035 176.2 96.6035 180.6 90.8035L185.6 84.2035L193.1 82.6035C197.2 81.8035 200.8 81.4035 201.1 81.8035C201.4 82.2035 202.3 82.1035 203.1 81.6035ZM132.1 83.6035C132.7 84.7035 133 85.6035 132.7 85.6035C131.4 85.6035 127.1 83.2035 127.1 82.4035C127.1 80.7035 131.1 81.7035 132.1 83.6035ZM173.5 82.5035C173.8 83.0035 173.3 83.6035 172.3 83.9035C171.4 84.1035 169.7 84.7035 168.6 85.2035C166.6 85.9035 166.6 85.9035 168.5 83.8035C170.5 81.5035 172.6 81.0035 173.5 82.5035ZM129.4 85.6035L135.6 88.6035L138.4 85.3035L141.3 82.1035L140.7 90.3035C139.8 101.803 139.8 101.803 134.8 99.5035C132.5 98.5035 129.8 97.6035 128.9 97.6035C126.4 97.6035 126.8 96.5035 130 93.9035L132.9 91.6035L135.6 95.6035C138.7 100.103 140.4 100.303 137.5 95.9035C136.5 94.4035 135.2 92.1035 134.5 90.8035L133.3 88.5035L129.8 92.3035C127.8 94.3035 126.1 95.8035 125.9 95.6035C125.7 95.3035 124.6 92.7035 123.4 89.9035L121.3 84.6035L124.5 87.1035C128 89.7035 130.6 90.3035 131.6 88.6035C131.9 88.0035 131.2 87.6035 129.9 87.6035C128.6 87.6035 126.3 86.5035 124.6 85.1035C120.6 81.9035 121.8 82.0035 129.4 85.6035ZM165.4 92.5035C164.5 93.9035 163.1 96.1035 162.3 97.4035C161.5 98.6035 161.1 99.9035 161.3 100.203C161.6 100.503 163.2 98.6035 164.7 96.1035C166.3 93.6035 167.9 91.6035 168.2 91.6035C169 91.6035 173.5 96.5035 173 96.9035C172.8 97.1035 170 98.2035 166.8 99.3035C162.7 100.803 160.9 101.103 160.6 100.303C160.4 99.6035 160.1 95.4035 159.9 90.9035L159.6 82.7035L163.3 86.3035C167 89.9035 167 90.0035 165.4 92.5035ZM178.5 84.1035C178.9 85.2035 176 93.8035 174.6 95.4035C174.4 95.6035 172.6 94.1035 170.5 92.1035C166.4 88.1035 166.6 87.4035 172.8 84.5035C177.6 82.3035 177.8 82.3035 178.5 84.1035ZM103.2 86.2035C104.9 87.7035 104.8 88.1035 101.3 94.4035C97.2003 102.003 96.6003 102.603 92.9003 102.603H90.2003L95.4003 93.6035C98.2003 88.6035 100.7 84.6035 101 84.6035C101.2 84.6035 102.2 85.3035 103.2 86.2035ZM206.4 95.6035C210.2 102.603 210.2 102.603 207.8 102.603C204.6 102.603 202.9 101.003 199.1 94.3035C197.3 91.1035 195.7 88.7035 195.4 89.0035C195.1 89.3035 196.9 93.1035 199.5 97.5035C202 101.903 204.1 105.803 204.1 106.103C204.1 106.403 202.8 106.603 201.2 106.603C198.6 106.603 197.8 105.703 194.2 99.5035L190.1 92.5035L193.3 89.8035C199.5 84.5035 199.5 84.5035 201.1 86.7035C201.9 87.7035 204.3 91.8035 206.4 95.6035ZM108.6 95.8035C103.2 105.203 102.2 106.403 99.2003 106.803C97.5003 107.103 96.1003 107.003 96.1003 106.803C96.1003 106.503 98.4003 102.303 101.2 97.4035L106.4 88.4035L108.4 90.5035C110.5 92.6035 110.5 92.6035 108.6 95.8035ZM115.1 97.6035C115.1 98.1035 113.4 101.303 111.4 104.903C108.1 110.603 107.2 111.503 104.4 111.803C102.6 112.003 101.1 112.103 101.1 111.903C101.1 111.703 103.4 107.503 106.2 102.603C111.2 93.9035 111.4 93.6035 113.2 95.2035C114.3 96.1035 115.1 97.2035 115.1 97.6035ZM194.8 102.903C197.6 108.003 199.8 112.203 199.8 112.303C199.7 112.403 198.1 112.103 196.2 111.803C193.3 111.203 192.3 110.003 188.9 104.203C185.3 97.7035 185.1 97.2035 186.7 95.5035C187.7 94.4035 188.7 93.6035 189 93.6035C189.3 93.7035 191.9 97.8035 194.8 102.903ZM117.9 107.103C116.3 109.803 114.5 113.103 113.9 114.303C113 116.103 107.5 118.103 106.3 117.103C106.1 117.003 108.3 112.803 111.2 107.803C116.3 98.7035 116.3 98.7035 118.6 100.403L120.9 102.103L117.9 107.103ZM189.9 108.603C192.7 113.303 194.8 117.203 194.6 117.403C194.5 117.603 192.9 117.303 191.1 116.903C188.4 116.203 187.1 114.703 183.9 109.203C180.2 102.703 180.1 102.203 181.7 100.403C183.8 98.1035 183.8 98.1035 189.9 108.603ZM86.1003 110.503L94.0003 120.903L89.3003 123.403C86.7003 124.703 78.1003 129.503 70.1003 133.903C62.1003 138.303 54.0003 142.803 52.1003 143.903C50.2003 144.903 46.2003 147.103 43.4003 148.803C40.5003 150.403 38.1003 151.503 38.1003 151.103C38.1003 150.803 40.0003 148.103 42.4003 145.203C44.7003 142.303 53.4003 130.903 61.6003 119.803C69.9003 108.803 77.0003 99.8035 77.4003 99.9035C77.8003 100.003 81.7003 104.803 86.1003 110.503ZM232.2 110.803C236.8 117.003 245.6 128.703 251.8 136.803C258 145.003 262.8 151.603 262.6 151.603C262.3 151.603 211.9 123.103 208.3 120.903C207.4 120.303 209.1 117.403 214.8 109.803C219.1 104.203 222.9 99.6035 223.2 99.6035C223.6 99.6035 227.7 104.703 232.2 110.803ZM124.3 105.303C125.8 106.603 126.1 108.403 126.1 115.103C126.1 121.903 126.5 123.803 128.2 126.003L130.2 128.603L135.3 126.003L140.4 123.403L138.3 126.303C136.6 128.703 136.4 129.903 137 132.803C138.2 137.903 138.6 138.303 144.1 140.103C146.9 141.003 149.1 142.203 149.1 142.703C149.1 143.203 146.6 143.603 143.5 143.603C138 143.603 138 143.603 132.3 137.503C125.1 129.703 125.1 129.803 124 121.803C122.5 112.003 122.2 111.603 120.1 116.403C119.1 118.703 117.5 120.603 116.7 120.603C115.9 120.603 114.6 120.903 113.7 121.203C112.8 121.503 112.1 121.403 112.1 120.803C112.1 119.703 121.4 103.603 122 103.603C122.2 103.603 123.3 104.303 124.3 105.303ZM137.3 118.403C132.9 124.003 132.5 125.603 136.6 121.103C140.1 117.203 140.3 117.203 147.9 116.903C153.9 116.603 155.2 116.803 153.8 117.703C152.8 118.303 150.3 118.503 148.3 118.203C145 117.703 144.8 117.803 146.9 118.803C148.7 119.703 150.2 119.703 153.4 118.703C160 116.803 160.1 116.803 163.9 121.503L167.6 126.003L162.7 123.303C158.6 121.003 156.7 120.603 150 120.603C143.2 120.603 141.5 121.003 138 123.203C135.4 124.803 133.5 125.403 132.9 124.803C131.3 123.203 134.2 110.603 137.1 107.203L139.6 104.203L139.9 109.403C140.2 113.903 139.8 115.203 137.3 118.403ZM120 125.703L118.9 133.103L123.4 142.603L127.9 152.103L138.6 157.103L149.2 162.103L145.9 164.803C144.1 166.303 142.2 167.603 141.8 167.603C141.4 167.603 136.4 164.503 130.8 160.703C122.9 155.403 119.4 152.203 115.4 146.903L110.2 139.903L114.5 131.003C116.9 126.103 119.1 121.103 119.6 119.803C120.9 115.503 121.1 118.203 120 125.703ZM181.1 119.603C181.1 120.103 183.2 124.803 185.7 130.103L190.3 139.603L185 146.603C180.7 152.203 177.4 155.103 168.9 160.703L158.2 167.803L155.2 165.503C153.6 164.203 152.2 162.903 152.2 162.603C152.1 162.303 156.8 159.703 162.5 156.903L172.9 151.703L177.4 142.303L181.8 132.903L180.5 125.503L179.2 118.103L179.7 125.803C180.2 133.203 180 133.703 175.9 142.103L171.6 150.803L160.9 156.103L150.2 161.403L139.4 155.803L128.5 150.303L124.6 141.703C121.2 134.403 120.6 132.403 120.9 127.603C121.3 121.103 123.1 118.303 123.1 124.103C123.2 126.303 123.7 129.103 124.4 130.303C126 133.103 138.1 145.603 139.2 145.603C139.7 145.603 140.1 147.303 140.1 149.303V152.903L142.6 150.603L145.2 148.203L145.8 150.403C146.5 153.103 147 153.103 148.6 150.903C149.9 149.203 150 149.203 151.9 150.903C153.9 152.703 153.9 152.703 154.6 150.703C155.4 148.103 156.7 148.003 158.1 150.603C159.6 153.403 161.1 153.103 161.1 149.803C161.1 147.803 163.1 145.003 169 138.703C176.4 130.803 177 129.903 177.6 124.703C178 121.603 178.5 118.803 178.8 118.303C179.3 117.403 181.1 118.403 181.1 119.603ZM160 125.403C162.2 127.803 162.2 128.003 160.5 128.703C159.4 129.103 157.2 129.503 155.4 129.503C153.5 129.603 151.8 130.303 151.1 131.303C150.1 133.003 150.1 133.003 149.1 131.303C148.5 130.403 146.8 129.603 145.3 129.603C143.8 129.603 141.6 129.303 140.4 129.003L138.1 128.403L140.2 125.703C142.8 122.403 145.3 121.603 152.1 122.303C156.4 122.703 158.1 123.403 160 125.403ZM209.9 123.403C211.4 124.403 218.9 128.803 226.6 133.103C234.3 137.403 244.7 143.203 249.6 146.103C254.6 148.903 259.5 151.603 260.6 152.203C261.9 152.803 253 153.203 234.2 153.403C218.6 153.503 205.6 153.503 205.4 153.303C204.6 152.403 206.4 146.803 207.5 147.203C208.3 147.503 208.4 144.803 207.9 136.603C207.5 130.503 206.9 124.703 206.6 123.603C205.8 121.103 206.5 121.103 209.9 123.403ZM93.6003 125.303C93.3003 126.903 92.4003 131.703 91.6003 136.103C89.7003 146.103 89.7003 147.603 91.6003 147.603C92.4003 147.603 93.1003 148.203 93.1003 149.003C93.1003 149.803 93.4003 151.103 93.7003 152.003C94.3003 153.403 91.4003 153.603 66.0003 153.603H37.6003L64.1003 139.003C78.7003 131.003 91.0003 124.003 91.6003 123.503C93.3003 121.903 94.1003 122.603 93.6003 125.303ZM107.9 140.003C107.3 140.503 93.0003 145.603 92.2003 145.603C91.8003 145.603 92.4003 140.503 93.4003 134.303L95.4003 122.903L101.8 131.403C105.4 136.003 108.1 139.903 107.9 140.003ZM206.2 134.603C206.7 140.303 207 145.103 206.8 145.303C206.5 145.503 203.8 144.503 200.6 143.103C197.4 141.703 194.2 140.603 193.5 140.603C192.7 140.603 192.1 140.403 192.1 140.103C192.1 139.203 204.4 123.603 204.8 124.003C205.1 124.203 205.7 129.003 206.2 134.603ZM148.2 132.103C150.1 133.303 149 134.303 144.4 135.303C141.7 135.903 139.5 136.303 139.4 136.203C139.2 136.103 138.8 134.603 138.5 132.903L137.9 129.803L142.6 130.703C145.1 131.203 147.7 131.803 148.2 132.103ZM162.1 131.803C162.1 136.003 161 136.503 155.9 135.203C150.2 133.803 150.7 132.003 157.2 130.703C159.6 130.203 161.7 129.803 161.9 129.703C162 129.603 162.1 130.603 162.1 131.803ZM155.6 136.503L159.6 137.303L154.9 139.403C150.4 141.403 150 141.403 146.2 139.803C143.9 138.903 142.1 137.803 142.1 137.403C142.1 135.903 149.7 135.403 155.6 136.503ZM105.1 147.603C103.5 150.903 102.1 154.003 102.1 154.603C102.1 155.203 105.4 155.603 110.3 155.603H118.6L109.6 164.603L100.6 173.603L97.3003 160.503C95.5003 153.303 94.2003 147.203 94.3003 147.103C94.8003 146.603 106.5 141.803 107.4 141.703C107.8 141.603 106.8 144.303 105.1 147.603ZM116 150.203L119 154.303L111.8 153.803C107.8 153.603 104.5 153.203 104.3 153.103C104.1 153.003 105.3 150.303 106.8 147.203L109.5 141.503L111.3 143.803C112.3 145.103 114.4 148.003 116 150.203ZM194.4 147.803C195.9 151.103 197 154.003 196.9 154.103C196.7 154.203 193.3 154.003 189.3 153.703L181.9 153.103L186.3 147.403C188.6 144.203 190.8 141.703 191.1 141.703C191.4 141.703 192.8 144.403 194.4 147.803ZM204.2 146.203C204.8 146.503 200.7 171.303 199.9 172.103C199.7 172.303 195.6 168.603 190.7 163.703L182 155.003L190.5 155.403C195.3 155.603 199.1 155.603 199.1 155.403C199.1 155.203 197.8 152.203 196.1 148.803C194.5 145.403 193.1 142.403 193.1 142.203C193.1 141.803 202.8 145.303 204.2 146.203ZM155.9 144.703L159.6 144.803L155.1 146.203C151.7 147.303 149.7 147.403 147 146.603C142.7 145.403 141.1 145.303 142.9 146.503C143.9 147.103 143.9 147.603 142.6 148.603C141.1 149.803 140.9 149.703 141.3 147.603C141.5 145.503 142.3 145.003 145.6 144.503C147.8 144.203 150.2 144.103 150.9 144.203C151.7 144.403 153.9 144.603 155.9 144.703ZM160.1 148.103C160.1 148.903 159.7 149.603 159.2 149.603C158.7 149.603 157.8 148.903 157.1 148.103C156.1 146.803 156.2 146.603 158 146.603C159.2 146.603 160.1 147.203 160.1 148.103ZM148.2 148.903C148.1 150.103 146.7 149.803 146.3 148.503C146 147.903 146.4 147.503 147.1 147.703C147.7 148.003 148.2 148.503 148.2 148.903ZM154.1 149.203C154.1 150.003 153.7 150.403 153.1 150.103C152.6 149.803 152.1 149.103 152.1 148.503C152.1 148.003 152.6 147.603 153.1 147.603C153.7 147.603 154.1 148.303 154.1 149.203ZM188.9 163.903L197.2 172.203L187.5 184.403C182.1 191.103 177.5 196.603 177.2 196.603C176.5 196.603 160.1 170.303 160.5 169.903C160.6 169.703 164.9 170.503 170.1 171.603C175.2 172.803 179.5 173.503 179.7 173.303C180.3 172.703 180.4 157.503 179.7 156.903C179.4 156.603 179.1 159.803 179.1 164.103V171.803L176.1 171.203C174.4 170.903 170.2 170.103 166.7 169.503L160.2 168.303L169.4 162.003C174.5 158.603 179.1 155.803 179.6 155.703C180.2 155.603 184.4 159.303 188.9 163.903ZM121.4 173.203C121.6 173.503 126 172.803 131 171.703C136 170.603 140.7 169.903 141.4 170.203C142 170.403 144.2 173.803 146 177.603C147.9 181.503 149.9 184.603 150.3 184.603C150.8 184.603 152.8 181.203 154.7 177.103L158.3 169.703L166.2 182.703C170.5 189.903 174.1 195.903 174.1 196.203C174.1 196.503 168.7 202.703 162.2 210.103L150.2 223.403L138 209.903L125.8 196.403L127.6 193.303C128.6 191.503 132 186.003 135.3 181.003C138.5 176.003 141.1 171.603 141.1 171.203C141.1 169.303 138.6 172.703 131 184.703C124.3 195.403 122.6 197.503 121.6 196.403C120.9 195.703 116.4 190.203 111.7 184.203L103 173.203L111.3 164.903L119.6 156.503L120.3 164.703C120.7 169.203 121.2 173.003 121.4 173.203ZM131.4 163.003C135.6 165.703 138.9 168.103 138.7 168.403C138.1 169.003 123 171.803 122.6 171.403C122.5 171.203 122 167.803 121.7 163.803C121.1 157.603 121.2 156.603 122.3 157.303C123.1 157.703 127.2 160.303 131.4 163.003ZM154.4 166.403L157 169.103L153.3 171.203L149.6 173.403L146.3 171.103L143 168.803L146.3 166.203C150.4 163.003 151.1 163.003 154.4 166.403ZM147.6 173.203C149.9 174.703 150.3 174.703 152.6 173.203C153.9 172.303 155.3 171.603 155.6 171.603C155.8 171.603 154.9 174.103 153.4 177.103C151.9 180.103 150.4 182.303 150.1 181.803C148.6 180.103 144.1 171.603 144.6 171.603C144.9 171.603 146.3 172.303 147.6 173.203Z" stroke="#FFA01D" stroke-width="2" mask="url(#path-1-inside-1)"/>
<path d="M156.381 39.0542C157.749 38.3701 158.982 37.7172 159.971 37.1561C158.941 37.5777 157.712 38.1263 156.418 38.7534L156.418 38.7537L150.418 41.6537L150.19 41.7637L149.967 41.6456L144.668 38.8466C143.234 38.1046 141.75 37.4371 140.529 36.9562C140.3 36.866 140.081 36.7827 139.874 36.7068C140.783 37.2802 142.036 37.9925 143.526 38.7575L150.105 42.0471L156.381 39.0542Z" stroke="#FFA01D"/>
<path d="M157.842 63.6744L157.859 63.6646L157.876 63.656C158.119 63.5344 158.317 63.374 158.448 63.2239C158.472 63.1966 158.492 63.1715 158.509 63.1488C158.408 63.1229 158.27 63.1032 158.1 63.1032C157.906 63.1032 157.6 63.3484 157.6 63.7032C157.6 63.7216 157.602 63.7336 157.603 63.7406C157.626 63.7459 157.708 63.7551 157.842 63.6744ZM157.606 63.7485C157.606 63.7485 157.606 63.7483 157.606 63.7478L157.606 63.7485Z" stroke="#FFA01D"/>
<path d="M175.476 86.4328C175.059 86.9094 174.41 87.3223 173.704 87.6153C172.993 87.9106 172.177 88.1035 171.4 88.1035C170.726 88.1035 170.306 88.2033 170.107 88.3148C170.072 88.334 170.051 88.3499 170.038 88.361C170.039 88.3618 170.039 88.3627 170.039 88.3635C170.131 88.5035 170.338 88.6899 170.642 88.8469C170.95 89.0064 171.297 89.1035 171.6 89.1035C171.711 89.1035 171.913 89.0584 172.213 88.9321C172.501 88.8106 172.838 88.6318 173.204 88.4091C173.936 87.9642 174.749 87.3646 175.464 86.7593C176.115 86.209 176.66 85.6742 176.988 85.2629C176.873 85.3181 176.743 85.3888 176.603 85.4768C176.204 85.7279 175.792 86.0719 175.476 86.4328ZM170.031 88.3407C170.031 88.3393 170.031 88.3385 170.031 88.3385L170.031 88.3407ZM177.483 85.104C177.482 85.104 177.482 85.104 177.482 85.104C177.483 85.1042 177.484 85.1042 177.484 85.1042C177.484 85.1042 177.483 85.1041 177.483 85.104Z" stroke="#FFA01D"/>
<path d="M190.858 159.529L190.867 159.532L190.875 159.535C190.878 159.536 190.881 159.537 190.883 159.538C190.644 159.34 190.325 159.186 190.014 159.116C189.978 159.108 189.945 159.101 189.913 159.096C190.158 159.246 190.487 159.405 190.858 159.529Z" stroke="#FFA01D"/>
<path d="M5.9 82.1035H8.2H9.14725L8.61282 82.8856L4.51282 88.8856L0.947253 94.1035H4.1C5.21067 94.1035 6.23617 94.1538 6.99332 94.2582C7.36734 94.3098 7.70342 94.3781 7.95756 94.472C8.0823 94.518 8.21979 94.5817 8.33482 94.6758C8.45038 94.7703 8.6 94.9453 8.6 95.2035C8.6 95.3155 8.56539 95.415 8.55023 95.4575C8.52903 95.517 8.50131 95.5811 8.47115 95.6455C8.41036 95.7753 8.32494 95.9374 8.22101 96.1237C8.0122 96.4979 7.71364 96.9963 7.34925 97.5806C6.61982 98.7502 5.61598 100.281 4.51294 101.885C4.51263 101.886 4.51233 101.886 4.51202 101.887L1.02019 107.037L8.21828 107.304L8.2185 107.304L16.4183 107.604L16.9087 107.622L16.8999 108.112L16.7 119.31C16.6999 119.311 16.6999 119.311 16.6999 119.311C16.65 123.006 16.7003 125.814 16.8362 127.692C16.8918 128.46 16.9608 129.059 17.0396 129.494C17.1424 129.04 17.2357 128.403 17.3148 127.581C17.5 125.654 17.6 122.798 17.6 119.104V107.604V107.104H18.1H26.6H34.0787L30.6843 101.881C29.5811 100.277 28.5771 98.7204 27.847 97.5121C27.4821 96.908 27.1826 96.3858 26.9728 95.9857C26.8683 95.7863 26.7823 95.6101 26.7211 95.4654C26.6906 95.3933 26.6633 95.322 26.6427 95.255C26.6252 95.1978 26.6 95.1049 26.6 95.0035C26.6 94.6867 26.837 94.5225 26.9307 94.4681C27.0464 94.401 27.1803 94.3597 27.2996 94.3312C27.5467 94.2723 27.8757 94.236 28.2492 94.2167C29.004 94.1776 30.0287 94.2041 31.1453 94.3056C32.2341 94.4046 33.2219 94.4538 33.9336 94.4661C34.0627 94.4683 34.1818 94.4693 34.29 94.4692C34.0956 94.1582 33.8305 93.7507 33.509 93.2684C32.7873 92.1859 31.7902 90.74 30.6922 89.1929L30.6922 89.1929L30.6884 89.1874L26.6884 83.3874L26.1948 82.6717L27.0616 82.605L30.9617 82.305L34.0177 82.0699L26.4821 70.578C24.2838 67.2306 22.1851 64.1076 20.5982 61.7584C20.1255 61.0587 19.6966 60.4253 19.3233 59.874C18.7379 59.0095 18.2894 58.3472 18.024 57.9489C17.908 58.0541 17.763 58.1985 17.5893 58.385C17.0723 58.9398 16.3616 59.8004 15.5087 60.9085C13.8057 63.1211 11.5632 66.2852 9.21869 69.8768L9.21872 69.8768L9.21553 69.8816L1.03625 82.1035H4.1H5.9ZM5.9 82.1035C6.57664 82.1035 7.18718 82.0455 7.77503 81.8477C8.36805 81.6483 8.90823 81.3169 9.46245 80.81C10.5454 79.8195 11.7295 78.1096 13.5194 75.2758C14.7103 73.4898 15.8463 71.9846 16.7155 70.9808C17.1534 70.475 17.5095 70.113 17.7623 69.9058C17.7689 69.9004 17.7753 69.8952 17.7817 69.8901C17.9327 70.1207 18.1456 70.44 18.4036 70.827C18.6086 71.1345 18.8421 71.4849 19.0958 71.8674C19.8823 73.0533 20.8794 74.574 21.876 76.1685L21.8813 76.177L21.8814 76.1769C23.4743 78.6162 24.5628 80.1067 25.6049 80.9751C26.6989 81.8868 27.7276 82.1035 29.1 82.1035C29.6585 82.1035 30.1372 82.0846 30.5313 82.0375C30.9161 81.9914 31.2651 81.9138 31.5353 81.7697C31.827 81.6141 32.0658 81.3552 32.101 80.9746C32.1315 80.6448 31.9956 80.3244 31.8287 80.0463L31.8226 80.0361L31.816 80.0262C31.4174 79.4282 28.3192 74.731 25.1199 69.832C23.5182 67.3294 21.9664 64.9767 20.7642 63.1985C20.1631 62.3094 19.6484 61.5623 19.258 61.0113C19.0629 60.7361 18.8974 60.5076 18.7669 60.3339C18.6508 60.1796 18.5446 60.0443 18.4664 59.9631C18.2211 59.6929 17.8924 59.8109 17.8278 59.8374C17.7211 59.8812 17.6259 59.9506 17.555 60.0075C17.4034 60.1291 17.2191 60.3125 17.015 60.5331C16.6011 60.9805 16.0449 61.6478 15.396 62.4643C14.0957 64.1008 12.397 66.37 10.6697 68.7607C8.942 71.1519 7.18201 73.6697 5.75897 75.8043C4.34666 77.9228 3.23844 79.7043 2.84254 80.6017L2.83901 80.6097L2.83576 80.6178C2.77312 80.7744 2.75728 80.95 2.80971 81.125C2.85985 81.2923 2.96032 81.4192 3.06239 81.5111C3.25623 81.6856 3.52469 81.7957 3.78597 81.8713C4.32542 82.0275 5.07844 82.1035 5.9 82.1035ZM17.247 130.212C17.247 130.212 17.2445 130.208 17.2393 130.201C17.2443 130.21 17.2469 130.213 17.247 130.212ZM16.8076 130.173C16.8039 130.177 16.8021 130.179 16.8022 130.18C16.8022 130.18 16.804 130.178 16.8076 130.173ZM21.4111 76.5189L21.4112 76.5189L21.416 76.5262L24.616 81.3262L25.1438 82.1179L24.1924 82.1035L17.5924 82.0035L10.9924 81.9035L10.075 81.8896L10.584 81.1262L12.1789 78.7337C12.9824 77.4284 14.3809 75.2309 15.2794 73.8331C15.74 73.1166 16.203 72.4986 16.5687 72.0675C16.7499 71.854 16.9162 71.6757 17.0524 71.5527C17.1169 71.4945 17.1955 71.4294 17.2787 71.3819C17.3174 71.3599 17.3906 71.3218 17.4851 71.3051C17.5819 71.288 17.7863 71.2827 17.9536 71.45L18.0109 71.5073L18.0472 71.5799C18.0467 71.5789 18.0475 71.5802 18.0498 71.5841C18.0569 71.5957 18.0779 71.6307 18.1219 71.6993C18.1738 71.7803 18.2459 71.8901 18.3367 72.0267C18.518 72.2995 18.77 72.6728 19.0759 73.1222C19.6874 74.0207 20.5115 75.2196 21.4111 76.5189ZM6.88489 86.5248L6.88483 86.5248L6.8898 86.5176C8.0419 84.8646 8.95726 83.7528 9.90557 83.0619C10.8845 82.3487 11.8695 82.1035 13.1 82.1035C13.9653 82.1035 14.7443 82.1542 15.3178 82.2475C15.6002 82.2935 15.8596 82.3539 16.0602 82.4363C16.1586 82.4767 16.2731 82.5343 16.371 82.6204C16.4694 82.707 16.6 82.8684 16.6 83.1035C16.6 83.2043 16.573 83.2937 16.5586 83.3384C16.5402 83.3954 16.5163 83.4555 16.4905 83.5147C16.4386 83.6339 16.3663 83.7795 16.2794 83.9437C16.1046 84.2738 15.8558 84.7074 15.5537 85.2108C14.9492 86.2184 14.1204 87.5243 13.2175 88.8786C11.8263 91.015 10.8583 92.3394 9.85511 93.1121C8.80376 93.922 7.74838 94.1035 6.3 94.1035C6.1991 94.1035 6.09967 94.1037 6.00196 94.1039C5.2641 94.1055 4.62345 94.1069 4.17618 94.0152C3.91774 93.9622 3.62777 93.8618 3.42152 93.63C3.19508 93.3754 3.15138 93.0595 3.19208 92.761C3.23096 92.4759 3.35134 92.1583 3.51921 91.8128C3.69024 91.4607 3.92796 91.0452 4.22907 90.5567C4.8072 89.619 5.64397 88.3728 6.74822 86.7283L6.88489 86.5248ZM28.1124 86.5208L28.1124 86.5207L28.116 86.5262C28.7901 87.5372 29.4818 88.5482 30.0879 89.4339C30.1993 89.5967 30.3078 89.7553 30.4128 89.9089C31.078 90.8821 31.6169 91.6766 31.8315 92.0509C31.9956 92.3254 32.1354 92.6512 32.0949 92.9883C32.0476 93.3805 31.7829 93.6319 31.4806 93.7784C31.1954 93.9167 30.8229 93.9926 30.3986 94.0382C29.9651 94.0847 29.4323 94.1035 28.8 94.1035C27.2621 94.1035 26.1759 93.9508 25.0569 93.0868C23.9932 92.2654 22.9237 90.8157 21.2853 88.3828L21.2852 88.3828L21.2816 88.3773L17.6816 82.8773L17.1751 82.1035H18.1H21.5C22.943 82.1035 24.0111 82.2833 25.0313 82.9777C26.0186 83.6496 26.9153 84.7751 28.1124 86.5208ZM21.4287 89.5463L23.7277 93.3446L24.1871 94.1035H23.3H17.7C16.1416 94.1035 14.7262 94.0533 13.6944 93.9642C13.1816 93.9198 12.7475 93.8646 12.4337 93.797C12.281 93.7641 12.1291 93.7226 12.0048 93.6655C11.9441 93.6376 11.8611 93.5932 11.7862 93.5227C11.7105 93.4515 11.6 93.3105 11.6 93.1035C11.6 92.8019 11.7252 92.4445 11.8766 92.1053C12.0368 91.7461 12.2612 91.3332 12.5248 90.8956C13.0527 90.019 13.758 89.0093 14.4789 88.0734C15.1985 87.1391 15.9454 86.2632 16.5587 85.6596C16.8612 85.3619 17.153 85.1086 17.4062 84.9514C17.5287 84.8753 17.6805 84.7971 17.8443 84.7673C18.0167 84.736 18.2727 84.7519 18.4644 84.9609C18.5996 85.0993 18.7754 85.3368 18.9642 85.6095C19.1664 85.9015 19.4078 86.2701 19.6718 86.6851C20.2001 87.5152 20.8274 88.5441 21.428 89.545C21.4283 89.5455 21.4285 89.5459 21.4287 89.5463ZM3 106.904H2.09433L2.57688 106.137L4.27688 103.437L4.28466 103.425L4.29313 103.413C5.04898 102.355 6.20997 100.544 7.21014 98.9849C7.52059 98.5009 7.81554 98.041 8.07807 97.6352C9.06316 96.0592 9.7196 95.0755 11.042 94.596C11.6819 94.3639 12.4509 94.2579 13.4408 94.2119C14.4326 94.1657 15.6863 94.1786 17.3077 94.2036L17.3077 94.2035L17.3147 94.2037L24.1147 94.4037L24.362 94.411L24.5063 94.6121L27.8058 99.2114C27.8058 99.2115 27.8059 99.2116 27.806 99.2117C29.589 101.688 31.397 104.297 31.8268 105.043C31.9614 105.253 32.0438 105.559 31.8673 105.864C31.7233 106.113 31.4613 106.25 31.2372 106.336C30.7647 106.517 29.9964 106.639 28.9283 106.727C26.7652 106.904 23.1441 106.953 17.5976 106.904H3Z" stroke="#FFA01D"/>
<path d="M294.3 82.1035H296.1H299.172L291.585 70.5823C291.584 70.5817 291.584 70.5811 291.583 70.5805C287.571 64.6059 283.974 59.3746 282.962 57.9596C282.855 58.0634 282.724 58.2016 282.567 58.3762C282.07 58.9317 281.376 59.7912 280.535 60.8942C278.855 63.0966 276.611 66.2376 274.215 69.7815C274.215 69.7822 274.214 69.7829 274.214 69.7836L266.086 82.0702L269.137 82.3049L269.138 82.305L273.137 82.6049L274.006 82.6701L273.511 83.3874L269.511 89.1874L269.511 89.1874L269.507 89.1929C268.409 90.74 267.412 92.1859 266.691 93.2684C266.369 93.7507 266.104 94.1582 265.91 94.4692C266.018 94.4693 266.137 94.4683 266.266 94.4661C266.978 94.4538 267.965 94.4046 269.054 94.3056C270.177 94.2035 271.211 94.202 271.976 94.2812C272.354 94.3203 272.693 94.3816 272.951 94.4728C273.077 94.5175 273.216 94.5804 273.333 94.6748C273.45 94.7698 273.6 94.9452 273.6 95.2035C273.6 95.3712 273.536 95.5529 273.483 95.6867C273.422 95.8432 273.335 96.0292 273.23 96.2362C273.019 96.6515 272.718 97.1819 272.353 97.7871C271.621 98.9983 270.615 100.533 269.509 102.09L266.052 107.104H273.6H282.1H282.6V107.604V119.104C282.6 122.798 282.7 125.654 282.885 127.581C282.964 128.403 283.057 129.04 283.16 129.494C283.239 129.059 283.308 128.46 283.363 127.692C283.499 125.814 283.55 123.006 283.5 119.312C283.5 119.311 283.5 119.311 283.5 119.31L283.3 108.112L283.291 107.622L283.781 107.604L291.981 107.304L291.981 107.304L299.179 107.037L295.688 101.887C295.687 101.886 295.687 101.886 295.687 101.885C294.584 100.281 293.58 98.7502 292.85 97.5806C292.486 96.9963 292.187 96.4979 291.979 96.1237C291.875 95.9374 291.789 95.7753 291.728 95.6455C291.698 95.5811 291.671 95.517 291.649 95.4575C291.634 95.415 291.6 95.3155 291.6 95.2035C291.6 94.9453 291.749 94.7703 291.865 94.6758C291.98 94.5817 292.117 94.518 292.242 94.472C292.496 94.3781 292.832 94.3098 293.206 94.2582C293.963 94.1538 294.989 94.1035 296.1 94.1035H299.252L295.687 88.8856L291.587 82.8856L291.052 82.1035H292H294.3ZM294.3 82.1035C294.838 82.1035 295.296 82.0781 295.674 82.0214C296.044 81.9659 296.376 81.875 296.634 81.7184C296.911 81.5505 297.119 81.2931 297.159 80.9431C297.195 80.6278 297.083 80.3235 296.937 80.0607L296.927 80.043L296.916 80.0262C296.829 79.8956 296.604 79.548 296.27 79.0312C295.139 77.2828 292.756 73.5978 290.216 69.8261C286.92 64.8332 283.907 60.5128 283.49 59.9912L283.484 59.9834L283.484 59.9834C283.231 59.6796 282.877 59.7794 282.752 59.8312C282.605 59.8919 282.465 59.9966 282.342 60.1011C282.085 60.3193 281.762 60.6641 281.384 61.1077C280.624 62.0019 279.583 63.3717 278.318 65.1374C275.786 68.6724 272.331 73.8307 268.378 80.0349L268.376 80.0385C268.227 80.2768 268.097 80.5829 268.162 80.9109C268.234 81.2683 268.499 81.4832 268.763 81.6066C269.023 81.7279 269.355 81.798 269.727 81.8409C270.106 81.8845 270.565 81.9035 271.1 81.9035H271.11L271.12 81.9031C271.776 81.8769 272.371 81.7905 272.948 81.5729C273.527 81.3543 274.062 81.0132 274.612 80.51C275.692 79.5225 276.874 77.8678 278.616 75.1797C279.765 73.4818 280.838 71.9105 281.635 70.764C282.034 70.1899 282.363 69.725 282.597 69.4048C282.6 69.4006 282.603 69.3965 282.606 69.3924C282.611 69.3994 282.617 69.4064 282.622 69.4135C282.864 69.7357 283.205 70.2058 283.615 70.7908C284.436 71.9601 285.532 73.5791 286.678 75.3727L286.679 75.3739C288.473 78.1644 289.683 79.8488 290.779 80.8267C291.339 81.3257 291.881 81.6522 292.467 81.8493C293.049 82.0451 293.646 82.1035 294.3 82.1035ZM287.1 82.1035H282.939L282.414 82.8826L278.714 88.3826L278.713 88.3849C277.122 90.7216 276.054 92.1418 274.981 92.9737C273.86 93.8425 272.761 94.0518 271.216 94.1032L271.208 94.1035H271.2C270.568 94.1035 270.04 94.0847 269.617 94.038C269.205 93.9926 268.839 93.9162 268.564 93.7697C268.421 93.6932 268.281 93.5864 268.178 93.4345C268.071 93.2764 268.024 93.0988 268.028 92.9193C268.034 92.593 268.204 92.2821 268.39 92.0168L268.415 91.9809L268.446 91.95C268.703 91.6933 269.223 90.967 269.895 89.9524C270.554 88.9582 271.326 87.7378 272.076 86.5385L272.078 86.5343C273.22 84.747 274.044 83.609 275.002 82.9431C275.994 82.2524 277.075 82.1035 278.6 82.1035H275.9H274.986L275.478 81.334L277.078 78.834L277.079 78.8331C277.529 78.1325 278.13 77.2072 278.729 76.283L278.73 76.2814L278.73 76.2813C279.33 75.356 279.93 74.4321 280.379 73.7331L280.381 73.7299L282.081 71.1299L282.474 70.5283L282.902 71.1063L284.6 73.4035C284.6 73.404 284.6 73.4045 284.601 73.405C285.514 74.6224 287.021 76.9345 287.931 78.5511L289.627 81.344L290.088 82.1035H289.2H287.1ZM287.1 82.1035C288.33 82.1035 289.315 82.3487 290.294 83.0619C291.242 83.7528 292.158 84.8646 293.31 86.5176L293.31 86.5176L293.315 86.5248L293.451 86.7285C294.556 88.3729 295.392 89.619 295.971 90.5567C296.272 91.0452 296.509 91.4607 296.68 91.8128C296.848 92.1583 296.969 92.4759 297.008 92.761C297.048 93.0595 297.005 93.3754 296.778 93.63C296.572 93.8618 296.282 93.9622 296.023 94.0152C295.576 94.1069 294.936 94.1055 294.198 94.1039C294.1 94.1037 294.001 94.1035 293.9 94.1035C292.451 94.1035 291.396 93.922 290.344 93.1121C289.341 92.3394 288.373 91.015 286.982 88.8786C286.079 87.5243 285.25 86.2184 284.646 85.2108C284.344 84.7074 284.095 84.2738 283.92 83.9437C283.833 83.7795 283.761 83.6339 283.709 83.5147C283.683 83.4555 283.659 83.3954 283.641 83.3384C283.627 83.2937 283.6 83.2043 283.6 83.1035C283.6 82.8684 283.73 82.707 283.829 82.6204C283.926 82.5343 284.041 82.4767 284.139 82.4363C284.34 82.3539 284.599 82.2935 284.882 82.2475C285.455 82.1542 286.234 82.1035 287.1 82.1035ZM283.397 130.18C283.397 130.179 283.396 130.177 283.392 130.173C283.396 130.178 283.397 130.18 283.397 130.18ZM282.96 130.201C282.955 130.208 282.953 130.212 282.953 130.212C282.953 130.213 282.955 130.21 282.96 130.201ZM285.913 88.3218L285.917 88.3284L285.921 88.3351C286.623 89.4373 287.277 90.4933 287.756 91.3137C287.996 91.723 288.195 92.0796 288.336 92.3564C288.406 92.4942 288.465 92.6198 288.509 92.7264C288.53 92.7796 288.551 92.835 288.566 92.8892C288.58 92.9359 288.6 93.0145 288.6 93.1035C288.6 93.3105 288.489 93.4513 288.414 93.5225C288.339 93.593 288.256 93.6374 288.195 93.6653C288.071 93.7224 287.92 93.7639 287.768 93.7969C287.456 93.8645 287.025 93.9198 286.518 93.9641C285.499 94.0533 284.108 94.1035 282.6 94.1035C281.091 94.1035 279.7 94.0533 278.681 93.9641C278.174 93.9198 277.743 93.8645 277.431 93.7969C277.279 93.7639 277.128 93.7224 277.004 93.6653C276.943 93.6374 276.86 93.593 276.786 93.5225C276.71 93.4513 276.6 93.3105 276.6 93.1035C276.6 93.0115 276.621 92.9302 276.635 92.884C276.651 92.8293 276.672 92.7729 276.695 92.7186C276.74 92.6095 276.802 92.48 276.875 92.3378C277.021 92.052 277.227 91.6848 277.472 91.2691C277.961 90.436 278.615 89.3859 279.28 88.3571C279.945 87.3285 280.624 86.3154 281.164 85.5571C281.434 85.1791 281.673 84.8576 281.861 84.6275C281.954 84.5139 282.043 84.4121 282.122 84.3349C282.161 84.2972 282.209 84.2538 282.262 84.2166L282.264 84.2152C282.295 84.1931 282.423 84.1035 282.6 84.1035C282.752 84.1035 282.859 84.173 282.88 84.1862L282.882 84.1873C282.919 84.2112 282.948 84.2359 282.965 84.2512C283.001 84.2831 283.035 84.3195 283.063 84.3511C283.123 84.4171 283.196 84.5063 283.277 84.6105C283.443 84.8212 283.666 85.121 283.93 85.4853C284.458 86.2152 285.161 87.2193 285.913 88.3218ZM295.906 103.413L295.915 103.425L295.923 103.437L297.623 106.137L298.105 106.904H297.2H282.6C277.302 106.904 273.706 106.829 271.494 106.639C270.399 106.545 269.596 106.42 269.089 106.243C268.847 106.158 268.587 106.033 268.421 105.822C268.329 105.705 268.264 105.557 268.256 105.387C268.249 105.221 268.298 105.076 268.363 104.961L268.372 104.943L268.384 104.926C268.788 104.319 270.592 101.714 272.393 99.2119C272.394 99.2117 272.394 99.2115 272.394 99.2114L275.693 94.6121L275.838 94.411L276.085 94.4037L282.885 94.2037L282.885 94.2037L282.892 94.2036C284.513 94.1786 285.767 94.1657 286.759 94.2119C287.749 94.2579 288.518 94.3639 289.158 94.596C290.48 95.0755 291.136 96.0592 292.122 97.6352C292.384 98.041 292.679 98.5009 292.989 98.985C293.99 100.544 295.151 102.355 295.906 103.413Z" stroke="#FFA01D"/>
<path d="M79.5996 180.603V181.103H79.0996H66.6996H54.2996H54.0751L53.9259 180.936L50.7259 177.336L50.7258 177.336L50.7186 177.327C49.8849 176.346 49.0578 175.545 48.4131 175.032C48.2559 174.907 48.1138 174.802 47.9885 174.717C48.0398 174.819 48.1025 174.933 48.1776 175.057C48.5527 175.679 49.1756 176.472 49.9532 177.25C50.7725 178.069 51.4464 178.896 51.8819 179.569C52.0976 179.903 52.268 180.218 52.3634 180.489C52.4104 180.622 52.4489 180.771 52.4524 180.921C52.4558 181.067 52.4259 181.284 52.2532 181.457C51.7874 181.923 51.0737 181.925 50.4311 181.789C49.7538 181.647 48.9671 181.316 48.1568 180.865C46.5321 179.963 44.7114 178.526 43.3226 176.932L43.3225 176.932L43.3155 176.923C42.5797 176.04 41.8541 175.318 41.2893 174.87C41.1623 174.77 41.0486 174.687 40.9491 174.622C41.0015 174.731 41.0692 174.856 41.1534 174.996C41.5053 175.583 42.0813 176.329 42.7648 177.062C43.5213 177.869 44.2055 178.654 44.7033 179.279C44.9515 179.591 45.1591 179.87 45.3071 180.097C45.3806 180.209 45.4456 180.318 45.494 180.416C45.5312 180.492 45.5996 180.64 45.5996 180.803C45.5996 181.12 45.3624 181.285 45.2677 181.339C45.1512 181.406 45.0166 181.447 44.8964 181.475C44.6477 181.532 44.3172 181.565 43.9418 181.578C43.1833 181.604 42.1544 181.552 41.0321 181.399L41.032 181.399L41.0236 181.398C39.7364 181.199 38.7967 181.159 38.1979 181.248C37.8962 181.293 37.7313 181.363 37.6531 181.42C37.6312 181.436 37.6182 181.449 37.6106 181.459C37.6256 181.472 37.6478 181.49 37.6801 181.511C37.8156 181.601 38.0488 181.702 38.393 181.796C39.0743 181.981 40.0772 182.103 41.2996 182.103H45.4996H46.6763L45.8595 182.95L43.1595 185.75L43.1596 185.75L43.1532 185.757C42.4319 186.478 41.7805 187.323 41.3122 188.079C41.0869 188.443 40.9084 188.779 40.7855 189.066C40.8032 189.052 40.8214 189.038 40.84 189.023C41.4522 188.541 42.3271 187.669 43.3155 186.483C45.8252 183.472 47.7561 182.103 49.8996 182.103H52.4996H53.6817L52.8584 182.952L49.5605 186.349C48.6767 187.283 48.0055 188.15 47.6198 188.816C47.4736 189.069 47.3783 189.276 47.3247 189.435C47.5365 189.322 47.8131 189.13 48.1427 188.856C48.8483 188.27 49.7253 187.371 50.6109 186.289L53.8092 182.291L53.9593 182.103H54.1996H66.5996H78.9996H79.4667L79.4984 182.569L79.7985 186.969L80.0379 190.482L86.1113 186.195L92.3289 181.806L86.3144 177.614C86.3143 177.614 86.3141 177.614 86.314 177.614C84.5168 176.366 82.8206 175.218 81.5501 174.384C80.9143 173.966 80.3879 173.629 80.0099 173.397C79.9411 173.354 79.8778 173.316 79.8202 173.282C79.7899 173.429 79.7604 173.615 79.7335 173.838C79.6492 174.537 79.5996 175.515 79.5996 176.603V180.603ZM47.0524 189.542C47.0524 189.542 47.0531 189.542 47.0547 189.542L47.0524 189.542ZM37.5828 181.43C37.5826 181.43 37.5834 181.431 37.5855 181.434C37.584 181.431 37.5829 181.43 37.5828 181.43ZM40.2322 189.405C40.2321 189.405 40.2347 189.405 40.2402 189.403C40.2351 189.404 40.2324 189.405 40.2322 189.405ZM47.272 189.701C47.2722 189.701 47.2721 189.697 47.2706 189.692C47.271 189.698 47.2717 189.701 47.272 189.701ZM89.912 181.213L90.3834 181.59L89.925 181.983L86.425 184.983L86.4217 184.986C85.4652 185.791 84.505 186.55 83.7296 187.109C83.3429 187.388 82.9947 187.623 82.712 187.79C82.5713 187.873 82.4379 187.945 82.3186 187.998C82.2181 188.042 82.062 188.103 81.8996 188.103C81.5907 188.103 81.4007 187.895 81.3117 187.767C81.2142 187.627 81.1432 187.455 81.0879 187.284C80.9751 186.934 80.8861 186.457 80.8161 185.904C80.675 184.788 80.5996 183.265 80.5996 181.603C80.5996 179.938 80.6113 178.647 80.7254 177.741C80.7823 177.289 80.8691 176.891 81.0153 176.576C81.1658 176.252 81.4024 175.971 81.7711 175.852C82.1206 175.74 82.4876 175.807 82.8295 175.937C83.1765 176.068 83.5638 176.289 83.9926 176.575C84.8504 177.147 85.9701 178.045 87.4133 179.214C87.4137 179.214 87.414 179.215 87.4144 179.215L89.912 181.213Z" stroke="#FFA01D"/>
<path d="M217.685 177.214L217.683 177.216C215.94 178.411 214.403 179.552 213.331 180.439C212.793 180.884 212.384 181.256 212.127 181.532C212.061 181.602 212.01 181.661 211.971 181.711C212.052 181.792 212.162 181.895 212.3 182.019C212.632 182.317 213.105 182.718 213.689 183.19C214.856 184.133 216.448 185.352 218.191 186.597L218.191 186.597L218.198 186.602L223.6 190.61V187.104V182.604V182.1L224.104 182.104L236.9 182.204H236.902H249.6H249.84L249.85 182.216L250.51 181.391L253.704 177.399C254.545 176.259 255.201 175.261 255.57 174.558C255.578 174.544 255.585 174.529 255.593 174.515C255.418 174.652 255.223 174.819 255.012 175.011C254.333 175.629 253.526 176.484 252.793 177.413L252.791 177.416L249.991 180.916L249.84 181.104H249.6H236.9H224.2H223.736L223.701 180.641L223.401 176.641L223.401 176.64L223.165 173.414L217.685 177.214ZM211.838 181.567C211.835 181.562 211.833 181.56 211.833 181.56C211.833 181.56 211.834 181.562 211.838 181.567ZM257.716 181.083L260.715 177.484C261.68 176.322 262.314 175.406 262.666 174.762C262.725 174.655 262.774 174.557 262.815 174.47C262.735 174.525 262.645 174.591 262.547 174.668C261.968 175.12 261.167 175.894 260.177 177.032L260.177 177.032L260.172 177.038C259.244 178.069 258.09 179.068 256.963 179.862C255.847 180.649 254.711 181.266 253.821 181.489L251.021 182.189L250.027 182.437L253.191 186.391L253.191 186.391L253.196 186.398C254.028 187.475 254.852 188.32 255.491 188.841C255.669 188.986 255.825 189.1 255.958 189.185C255.902 189.051 255.824 188.895 255.721 188.722C255.398 188.181 254.881 187.543 254.261 186.971L254.259 186.969C253.476 186.237 252.867 185.604 252.445 185.063C252.039 184.542 251.742 184.028 251.713 183.545C251.698 183.282 251.763 183.026 251.927 182.805C252.084 182.594 252.305 182.454 252.541 182.358C252.999 182.171 253.638 182.104 254.4 182.104C255.295 182.104 256.222 182.49 257.158 183.175C258.097 183.863 259.079 184.877 260.096 186.199L260.097 186.199L260.104 186.209C260.892 187.293 261.671 188.19 262.302 188.774C262.506 188.962 262.686 189.111 262.84 189.22C262.797 189.124 262.745 189.017 262.683 188.9C262.353 188.275 261.799 187.454 261.116 186.623C261.115 186.623 261.115 186.622 261.114 186.621L258.418 183.426L257.793 182.686L258.759 182.605L262.353 182.306C262.354 182.306 262.355 182.306 262.356 182.305C263.375 182.208 264.253 182.015 264.861 181.786C265.168 181.67 265.382 181.554 265.508 181.454C265.534 181.434 265.554 181.416 265.568 181.402C265.567 181.401 265.565 181.4 265.564 181.399C265.472 181.343 265.288 181.277 264.974 181.237C264.356 181.158 263.411 181.2 262.179 181.397L262.171 181.399L262.162 181.4L258.162 181.9L256.905 182.057L257.716 181.083ZM265.608 181.354C265.608 181.354 265.608 181.355 265.608 181.356L265.608 181.354ZM265.607 181.431C265.608 181.433 265.609 181.434 265.61 181.434C265.61 181.434 265.609 181.433 265.607 181.431ZM255.875 173.801C255.875 173.801 255.875 173.804 255.875 173.808C255.876 173.803 255.876 173.801 255.875 173.801ZM213.6 181.704V181.662L213.607 181.621C213.625 181.514 213.67 181.429 213.697 181.382C213.729 181.327 213.767 181.275 213.803 181.228C213.877 181.135 213.973 181.031 214.08 180.922C214.296 180.703 214.592 180.433 214.939 180.133C215.633 179.533 216.553 178.792 217.496 178.069C218.438 177.347 219.409 176.637 220.205 176.1C220.602 175.832 220.961 175.603 221.254 175.435C221.401 175.352 221.537 175.28 221.658 175.226C221.767 175.177 221.907 175.122 222.045 175.107L222.072 175.104H222.1C222.322 175.104 222.466 175.231 222.532 175.306C222.599 175.383 222.641 175.468 222.668 175.53C222.722 175.658 222.763 175.816 222.795 175.979C222.862 176.312 222.917 176.776 222.961 177.326C223.05 178.431 223.1 179.946 223.1 181.604C223.1 183.257 223.075 184.766 223.025 185.864C222.999 186.411 222.967 186.867 222.928 187.191C222.908 187.35 222.884 187.497 222.853 187.613C222.838 187.666 222.814 187.745 222.771 187.82L222.771 187.82C222.75 187.857 222.609 188.104 222.3 188.104C222.143 188.104 221.987 188.041 221.897 188.003C221.782 187.954 221.65 187.887 221.507 187.809C221.22 187.653 220.858 187.432 220.454 187.173C219.642 186.652 218.631 185.956 217.645 185.247C216.66 184.537 215.692 183.81 214.969 183.225C214.608 182.934 214.301 182.673 214.08 182.464C213.971 182.36 213.873 182.26 213.798 182.17C213.762 182.125 213.721 182.071 213.687 182.012C213.662 181.968 213.6 181.854 213.6 181.704Z" stroke="#FFA01D"/>
</svg>
